<svg xmlns="http://www.w3.org/2000/svg" version="1.1" xmlns:xlink="http://www.w3.org/1999/xlink" xmlns:svgjs="http://svgjs.dev/svgjs" viewBox="0 0 800 800"><defs><linearGradient x1="50%" y1="0%" x2="50%" y2="100%" id="ccchaos-grad"><stop stop-color="hsl(206, 75%, 49%)" stop-opacity="1" offset="0%"></stop><stop stop-color="hsl(331, 90%, 56%)" stop-opacity="1" offset="100%"></stop></linearGradient></defs><g stroke-width="2" stroke="url(#ccchaos-grad)" fill="none" stroke-linecap="round"><path d="M403.7 123.82C404.63 112.44 424.68 118.09 438.15 133.55Q444.12 143.06 447.97 152.45 449.7 161.71 449.48 170.83 447.68 179.79 444.83 188.58 438.94 205.49 435.71 221.82 437.04 229.63 440.65 237.24 446.61 244.65 454.8 251.87 464.91 258.91 476.41 265.77 488.67 272.48 500.96 279.04 512.53 285.48 522.7 291.82 535.45 304.26 540.75 316.6 535.47 329.06 526.96 341.74 520.68 355.08 519.96 368.95 524.01 376.27 530.82 383.82 540.21 391.64 551.73 399.74 564.75 408.12 578.47 416.79 592.04 425.76 604.6 435.03 615.38 444.59 623.73 454.45 629.26 464.59 631.79 474.99 631.45 485.64 628.6 496.53 623.84 507.62 617.98 518.9 611.91 530.32 606.56 541.87 602.81 553.51 601.41 565.21 602.89 576.92 607.54 588.61 615.36 600.25 626.05 611.8 639.06 623.21 653.62 634.46 668.78 645.5 683.58 656.31 697.02 666.86 708.25 677.11 716.61 687.03 721.67 696.62C723.01 709.77 700.4 723.48 686.46 718.58Q669.27 707.94 652.08 694 634.89 679.16 617.7 665.96 600.52 656.69 583.33 652.95 566.14 655.38 548.95 663.56 531.76 676.09 514.58 690.79 497.39 705.14 480.2 716.67 463.01 723.38 445.83 724.12 428.64 718.76 411.45 708.23 394.26 694.34 377.07 679.48 359.89 666.23 342.7 656.85 325.51 652.97 308.32 655.26 291.14 663.32 273.95 675.77 256.76 690.45 239.57 704.84 222.39 716.45 205.2 723.29 188.01 724.17 170.82 718.95 153.64 708.52 136.45 694.68C122.51 682.58 115.87 660.93 123.11 653.92Q134.38 636.72 139.75 623.95 143.44 612.64 148.48 600.57 157.35 587.04 168.79 572.55 175.75 564.73 183.1 556.57 190.56 548.08 197.83 539.26 204.6 530.13 210.62 520.71 215.69 511 219.68 501.03 222.58 490.82 224.45 480.4 225.49 469.79 225.95 459.03 226.16 448.14 226.48 437.15 227.28 426.09 228.88 415 231.55 403.91 235.47 392.84 240.7 381.83 247.18 370.9 254.75 360.09 263.11 349.4 271.9 338.87 280.72 328.52 289.13 318.36 296.73 308.41 303.18 298.68 308.25 289.17 311.8 279.9 313.86 270.87 313.92 253.63 312.06 237.06 311.6 221.55 314.58 206.57 318.81 199.36 324.75 192.27 332.3 185.3 341.18 178.41 350.99 171.58 361.23 164.79 371.35 158.03 380.81 151.27 389.11 144.48 395.84 137.66 402.22 127.29 403.7 123.82" stroke-dasharray="4 3" transform="rotate(0, 400, 400)" opacity="0.05"></path><path d="M405.87 134.82C410.4 123.94 429.92 129.54 439.11 144.47Q442.32 153.65 443.6 162.72 443.16 171.68 441.35 180.5 438.62 189.17 435.54 197.68 431.37 214.09 431.16 229.95 434.32 237.55 439.64 244.96 447.04 252.18 456.27 259.21 466.92 266.07 478.46 272.75 490.25 279.28 501.66 285.66 512.04 291.91 520.85 298.05 531 310.03 534.3 321.86 528.5 333.66 520.26 345.6 514.71 357.99 514.45 370.81 518.38 377.53 524.86 384.44 533.7 391.58 544.53 398.96 556.81 406.59 569.85 414.49 582.92 422.66 595.24 431.1 606.1 439.82 614.91 448.83 621.23 458.11 624.84 467.66 625.74 477.48 624.16 487.54 620.53 497.83 615.47 508.34 609.73 519.05 604.13 529.92 599.48 540.94 596.51 552.08 595.86 563.3 597.92 574.59 602.92 585.89 610.79 597.19 621.25 608.44 633.79 619.62 647.71 630.69 662.21 641.61 676.39 652.36 689.41 662.91 700.48 673.22 709 683.26C716 697.21 700.14 708.4 686.53 701.16Q669.75 688.92 652.97 674.88 636.19 661.28 619.41 650.29 602.63 643.67 585.85 642.46 569.07 646.87 552.29 656.18 535.51 668.92 518.73 683.05 501.95 696.31 485.17 706.6 468.39 712.26 451.61 712.4 434.83 706.99 418.05 696.9 401.27 683.73 384.49 669.59 367.71 656.73 350.92 647.21 334.14 642.55 317.36 643.48 300.58 649.86 283.8 660.68 267.02 674.2 250.24 688.27 233.46 700.64 216.68 709.34 199.9 712.98 183.12 710.99 166.34 703.67 149.56 692.19C135.95 681.08 128.48 659.92 134.37 653.25Q142.85 635.98 147.1 622.77 151.19 610.79 157.08 597.98 161.39 591.05 166.55 583.81 172.5 576.25 179.1 568.39 186.15 560.21 193.41 551.73 200.6 542.95 207.45 533.89 213.7 524.57 219.14 515 223.61 505.2 227.03 495.2 229.44 485.01 230.92 474.67 231.66 464.2 231.94 453.62 232.04 442.98 232.3 432.28 233.06 421.57 234.6 410.87 237.17 400.2 240.92 389.59 245.9 379.08 252.07 368.67 259.29 358.39 267.31 348.27 275.8 338.31 284.41 328.54 292.73 318.97 300.4 309.6 307.09 300.45 312.54 291.51 318.55 274.43 320.63 258.01 318.73 242.63 316.76 227.81 318.77 213.8 325.03 200.18 330.94 193.55 338.35 186.99 346.98 180.48 356.49 174.01 366.42 167.55 376.28 161.09 385.57 154.6 393.84 148.07 403.28 138.15 405.87 134.82" stroke-dasharray="10 1" transform="rotate(4.04, 400, 400)" opacity="0.09"></path><path d="M404.91 145.86C413.04 135.44 431.87 140.98 436.69 155.38Q436.71 172.99 432.17 190.15 426.72 206.76 424.38 222.75 428.36 238.06 440.04 252.64 458.44 266.52 480.49 279.7 501.89 292.26 518.4 304.29 527.17 315.89 527.63 327.22 521.78 338.43 513.6 349.7 507.92 361.21 508.93 373.13 518.89 385.62 537.36 398.85 561.27 412.94 585.78 427.99 605.77 444.06 617.33 461.18 619.08 479.33 612.59 498.45 602.01 518.45 592.87 539.18 590.36 560.47 597.8 582.12 615.5 603.91 640.66 625.59 668.1 646.93 691.83 667.69C703.72 682.15 694.99 691.19 681.81 682.34Q665.56 669.43 649.31 656.08 633.06 644.27 616.81 635.74 600.57 631.74 584.32 632.86 568.07 638.94 551.82 649.07 535.57 661.78 519.32 675.18 503.08 687.31 486.83 696.38 470.58 701.06 454.33 700.65 438.08 695.22 421.83 685.56 405.58 673.1 389.34 659.68 373.09 647.26 356.84 637.68 340.59 632.34 324.34 632.04 308.09 636.81 291.84 645.96 275.6 658.14 259.35 671.55 243.1 684.22 226.85 694.28 210.6 700.27 194.35 701.28 178.1 697.18 161.85 688.56C148.67 679.11 140.1 659 144.57 652.3Q148.8 642.47 151.63 631.85 154.5 620.29 158.99 607.65 166.28 593.87 176.74 578.91 189.75 562.8 203.82 545.61 217 527.42 227.49 508.38 234.24 488.65 237.29 468.41 237.89 447.87 238.13 427.22 240.34 406.67 246.37 386.39 256.97 366.56 271.5 347.31 288.03 328.76 303.91 311 316.56 294.06 324.28 277.95 326.82 262.66 325.56 248.13 323.11 234.28 322.59 221 326.65 208.16 336.62 195.63 352.06 183.28 370.8 170.95 389.56 158.52 404.91 145.86 404.91 145.86 404.91 145.86" stroke-dasharray="1 11" transform="rotate(8.08, 400, 400)" opacity="0.13"></path><path d="M401.04 156.89C412.18 146.96 430.18 152.42 431.17 166.27Q428.08 183.23 422.88 199.77 419.08 215.81 419.9 231.28 427.36 246.11 441.67 260.27 461.07 273.76 482.32 286.6 501.56 298.82 515.36 310.5 521.74 321.73 520.79 332.64 514.64 343.35 507 354.02 502.07 364.79 503.42 375.84 512.94 387.32 530.24 399.38 552.73 412.14 576.29 425.73 596.36 440.21 609.29 455.65 613.33 472.07 609.2 489.45 599.96 507.74 590.19 526.86 584.72 546.68 587.28 567.06 599.44 587.82 620.06 608.77 645.62 629.69 671.1 650.37C686.49 664.98 684.23 672.36 671.6 662.69Q656.01 649.98 640.43 638 624.84 628.38 609.26 622.42 593.67 620.92 578.08 624.1 562.5 631.52 546.91 642.17 531.33 654.61 515.74 667.17 500.16 678.13 484.57 686.03 468.98 689.78 453.4 688.88 437.81 683.45 422.23 674.23 406.64 662.47 391.06 649.75 375.47 637.8 359.88 628.24 344.3 622.35 328.71 620.94 313.13 624.2 297.54 631.68 281.95 642.38 266.37 654.84 250.78 667.39 235.2 678.31 219.61 686.13 204.02 689.8 188.44 688.82 172.85 683.32C160.21 676.03 150.53 657.42 153.63 650.4Q156.54 639.95 158.92 628.57 162.21 616.17 167.7 602.69 176.14 588.11 187.43 572.48 200.65 555.84 214.23 538.28 226.39 519.95 235.64 500.97 241.27 481.52 243.56 461.77 243.8 441.9 243.94 422.1 246.06 402.52 251.82 383.32 261.87 364.63 275.67 346.57 291.58 329.22 307.25 312.62 320.3 296.81 328.97 281.78 332.71 267.48 332.33 253.87 329.89 240.85 328.11 228.33 329.64 216.2 336.3 204.32 348.51 192.57 365.11 180.82 383.66 168.97 401.04 156.89 401.04 156.89 401.04 156.89" stroke-dasharray="3 9" transform="rotate(12.12, 400, 400)" opacity="0.16"></path><path d="M394.91 167.93C408.01 158.49 425.05 163.86 423.26 177.15Q418.71 193.45 414.36 209.37 413.19 224.83 417.45 239.76 428.05 254.11 444.26 267.84 463.88 280.95 483.76 293.43 500.56 305.32 511.69 316.67 515.92 327.56 513.8 338.08 507.53 348.35 500.47 358.48 496.27 368.63 497.92 378.92 506.99 389.49 523.15 400.5 544.24 412.06 566.74 424.29 586.71 437.29 600.72 451.13 606.86 465.85 605.16 481.48 597.71 498.01 588.14 515.4 580.71 533.57 579.21 552.43 586.01 571.84 601.36 591.66 623.31 611.73 648.17 631.85C665.3 646.26 668.04 652.48 656.04 642.75Q641.23 631.02 626.43 620.94 611.62 613.76 596.82 610.36 582.01 611.17 567.21 616.09 552.4 624.51 537.6 635.38 522.79 647.36 507.99 658.96 493.19 668.75 478.38 675.51 463.58 678.4 448.77 677.07 433.97 671.68 419.16 662.89 404.36 651.81 389.55 639.79 374.75 628.34 359.95 618.86 345.14 612.54 330.34 610.16 315.53 612.01 300.73 617.87 285.92 627 271.12 638.28 256.32 650.3 241.51 661.59 226.71 670.73 211.9 676.6 197.1 678.47 182.3 676.1C170.29 671.26 159.7 654.52 161.72 646.98Q163.86 635.7 166.36 623.45 170.49 610.2 177.17 595.93 186.69 580.69 198.59 564.53 211.74 547.56 224.59 529.87 235.59 511.6 243.58 492.91 248.14 473.94 249.74 454.86 249.67 435.83 249.73 416.99 251.79 398.48 257.27 380.43 266.77 362.94 279.84 346.09 295.08 329.93 310.44 314.49 323.75 299.79 333.28 285.79 338.22 272.46 338.93 259.73 336.91 247.53 334.44 235.75 333.98 224.29 337.6 213.04 346.36 201.89 360.01 190.72 377.01 179.43 394.91 167.93 394.91 167.93 394.91 167.93" stroke-dasharray="2 4" transform="rotate(16.16, 400, 400)" opacity="0.20"></path><path d="M387.47 179C401.27 170.01 417.26 175.28 414.01 188.03Q409.64 203.67 407.39 218.96 409.44 233.83 417.06 248.21 430.2 262.07 447.51 275.36 466.61 288.07 484.62 300.19 498.85 311.75 507.41 322.78 509.73 333.35 506.68 343.52 500.44 353.4 494.01 363.07 490.5 372.66 492.42 382.29 501.05 392.08 516.11 402.16 535.81 412.65 557.19 423.66 576.83 435.3 591.66 447.64 599.65 460.75 600.34 474.68 595.01 489.46 586.36 505.06 577.97 521.47 573.41 538.63 575.44 556.45 585.32 574.84 602.49 593.67 624.63 612.8C641.69 626.66 647.43 632.24 636.13 623.15Q622.19 613.04 608.25 605.22 594.31 600.55 580.38 599.59 566.44 602.42 552.5 608.73 538.57 617.82 524.63 628.64 510.69 639.98 496.75 650.55 482.82 659.17 468.88 664.85 454.94 666.96 441.01 665.25 427.07 659.92 413.13 651.57 399.19 641.15 385.26 629.83 371.32 618.89 357.38 609.57 343.45 602.93 329.51 599.71 315.57 600.27 301.63 604.57 287.7 612.09 273.76 622.01 259.82 633.19 245.89 644.38 231.95 654.3 218.01 661.84 204.08 666.15 190.14 666.73C178.84 664.41 167.77 649.74 169.14 641.56Q171.13 629.4 174.28 616.3 179.56 602.27 187.47 587.37 197.91 571.65 210.12 555.19 222.9 538.11 234.81 520.53 244.56 502.57 251.28 484.38 254.84 466.09 255.83 447.85 255.51 429.78 255.53 412.02 257.52 394.66 262.73 377.81 271.67 361.54 284 345.9 298.53 330.92 313.49 316.63 326.93 303 337.18 290.01 343.29 277.61 345.23 265.74 344 254.31 341.37 243.25 339.54 232.45 340.59 221.82 345.98 211.25 356.2 200.65 370.58 189.93 387.47 179 387.47 179 387.47 179" stroke-dasharray="10 8" transform="rotate(20.200000000000003, 400, 400)" opacity="0.24"></path><path d="M379.91 190.06C393.07 181.55 407.97 186.7 404.67 198.89Q401.94 213.86 402.62 228.51 408.05 242.78 418.58 256.62 433.49 269.97 451.06 282.81 468.97 295.11 484.76 306.87 496.36 318.09 502.54 328.82 503.22 339.08 499.48 348.93 493.41 358.45 487.63 367.72 484.78 376.83 486.93 385.89 495.11 395.01 509.11 404.29 527.43 413.84 547.63 423.78 566.79 434.19 582.15 445.17 591.71 456.79 594.68 469.12 591.64 482.19 584.5 496.03 576.08 510.65 569.54 526.01 567.7 542.09 572.44 558.82 584.25 576.12 602.14 593.89C617.5 606.9 624.02 612.27 613.45 604.39Q600.43 596.37 587.4 590.99 574.38 588.81 561.35 590.04 548.33 594.56 535.3 601.91 522.28 611.33 509.26 621.86 496.23 632.41 483.21 641.9 470.18 649.37 457.16 654.03 444.13 655.42 431.11 653.39 418.08 648.15 405.06 640.23 392.03 630.46 379.01 619.83 365.98 609.43 352.96 600.34 339.93 593.47 326.91 589.55 313.88 588.96 300.86 591.78 287.83 597.71 274.81 606.14 261.78 616.21 248.76 626.89 235.73 637.07 222.71 645.72 209.68 651.95 196.66 655.11C186.09 655.19 175.12 642.68 176.32 633.85Q178.79 620.86 183.01 607.04 189.58 592.43 198.62 577.1 209.7 561.14 221.91 544.64 234.03 527.71 244.82 510.48 253.24 493.05 258.73 475.56 261.36 458.13 261.82 440.87 261.31 423.88 261.31 407.28 263.24 391.13 268.18 375.51 276.58 360.47 288.17 346.03 301.95 332.22 316.41 319.03 329.84 306.45 340.67 294.43 347.86 282.92 351.09 271.87 350.92 261.2 348.65 250.82 346.1 240.67 345.2 230.63 347.59 220.64 354.28 210.6 372.62 195.25 379.91 190.06" stroke-dasharray="3 7" transform="rotate(24.24, 400, 400)" opacity="0.28"></path><path d="M373.39 201.15C384.76 193.08 398.63 198.1 396.5 209.75Q396.45 224.04 400.42 238.04 408.97 251.71 421.73 264.98 437.53 277.82 454.56 290.19 470.74 302.07 484.07 313.46 493.09 324.35 497.12 334.76 496.42 344.71 492.22 354.27 486.43 363.47 481.32 372.38 479.1 381.09 481.44 389.66 489.19 398.2 502.16 406.8 519.13 415.56 538.09 424.56 556.6 433.9 572.22 443.67 583.06 453.95 588.1 464.8 587.41 476.29 582.2 488.44 574.57 501.29 567.12 514.86 562.5 529.12 562.84 544.05 569.36 559.62 582.1 575.75C594.51 587.67 599.86 593.25 590.04 586.99Q577.93 581.33 565.81 578.42 553.7 578.53 541.58 581.65 529.47 587.49 517.35 595.51 505.24 604.97 493.12 614.99 481.01 624.63 468.89 633.02 456.78 639.36 444.66 643.07 432.55 643.82 420.43 641.52 408.32 636.39 396.2 628.91 384.08 619.77 371.97 609.82 359.85 599.97 347.74 591.15 335.62 584.17 323.51 579.68 311.39 578.09 299.28 579.55 287.16 583.93 275.05 590.82 262.93 599.58 250.82 609.4 238.7 619.36 226.59 628.55 214.47 636.12 202.35 641.36C192.53 643.55 182.27 633.1 183.81 623.73Q187.26 610.08 192.8 595.74 200.64 580.8 210.58 565.31 221.96 549.38 233.81 533.11 245.02 516.59 254.54 499.94 261.61 483.26 265.93 466.66 267.72 450.23 267.73 434.07 267.08 418.26 267.08 402.88 268.96 387.97 273.63 373.59 281.49 359.77 292.33 346.52 305.32 333.84 319.21 321.73 332.49 310.14 343.74 299.05 351.89 288.4 356.4 278.14 357.49 268.19 356 258.48 353.35 248.94 351.21 239.5 351.2 230.07 354.6 220.58 367.72 206.05 373.39 201.15" stroke-dasharray="4 8" transform="rotate(28.28, 400, 400)" opacity="0.32"></path><path d="M368.98 212.24C377.73 204.64 390.63 209.51 390.6 220.59Q393.73 234.19 400.89 247.55 411.93 260.6 426.04 273.3 441.85 285.61 457.64 297.5 471.67 308.95 482.45 319.95 489.03 330.49 491.17 340.58 489.39 350.24 484.94 359.51 479.52 368.42 475.09 377.02 473.45 385.37 475.95 393.53 483.27 401.59 495.25 409.62 510.9 417.7 528.59 425.91 546.29 434.34 561.92 443.06 573.72 452.16 580.57 461.7 582.17 471.74 579.15 482.33 572.95 493.52 565.6 505.34 559.37 517.8 556.36 530.91 558.18 544.64 565.61 558.98C574.36 569.64 577.02 575.69 567.89 571.31Q556.65 568.09 545.4 567.51 534.15 569.63 522.9 574.28 511.65 581.05 500.41 589.39 489.16 598.61 477.91 607.94 466.66 616.59 455.41 623.86 444.16 629.13 432.92 631.96 421.67 632.13 410.42 629.61 399.17 624.62 387.92 617.57 376.68 609.05 365.43 599.77 354.18 590.49 342.93 582 331.68 575 320.43 570.07 309.19 567.63 297.94 567.87 286.69 570.78 275.44 576.11 264.19 583.42 252.94 592.11 241.69 601.44 230.45 610.64 219.2 618.95 207.95 625.67C198.82 629.57 189.85 621.02 192.13 611.25Q196.9 597.2 203.8 582.63 212.72 567.63 223.22 552.28 234.53 536.67 245.69 520.88 255.76 505.02 263.91 489.17 269.64 473.42 272.87 457.86 273.93 442.56 273.58 427.6 272.84 413.02 272.86 398.89 274.69 385.24 279.09 372.1 286.42 359.48 296.5 347.38 308.68 335.8 321.91 324.71 334.91 314.08 346.41 303.88 355.35 294.05 361.08 284.53 363.52 275.28 363.15 266.21 360.96 257.28 358.29 248.4 356.63 239.52 357.3 230.57 365.13 216.87 368.98 212.24" stroke-dasharray="1 2" transform="rotate(32.32, 400, 400)" opacity="0.35"></path><path d="M367.4 223.35C373.16 216.19 385.2 220.92 387.7 231.42Q394.01 244.34 403.8 257.03 416.49 269.45 431.01 281.57 446 293.34 459.99 304.73 471.61 315.74 479.86 326.33 484.21 336.51 484.76 346.27 482.18 355.64 477.65 364.62 470.27 381.43 470.47 397.42 477.36 405.08 488.37 412.63 502.74 420.15 519.15 427.71 535.92 435.37 551.32 443.21 563.76 451.3 572.1 459.7 575.82 468.47 575.09 477.67 570.8 487.36 564.39 497.56 557.67 508.31 552.54 519.63 550.66 531.54 553.25 544.03C558.2 553.36 557.3 560.04 548.81 557.61Q538.36 556.73 527.9 558.22 517.45 561.99 506.99 567.75 496.53 575.08 486.08 583.42 475.62 592.16 465.17 600.65 454.71 608.26 444.25 614.42 433.8 618.68 423.34 620.71 412.89 620.37 402.43 617.69 391.97 612.85 381.52 606.23 371.06 598.31 360.61 589.69 350.15 580.99 339.7 572.88 329.24 565.95 318.78 560.71 308.33 557.56 297.87 556.73 287.42 558.29 276.96 562.11 266.51 567.91 256.05 575.26 245.59 583.62 235.14 592.36 224.68 600.84 214.23 608.42C205.74 613.52 198.47 606.59 201.73 596.65Q207.93 582.5 216.04 568.02 225.71 553.27 236.35 538.35 247.19 523.33 257.37 508.28 266.12 493.29 272.86 478.43 277.32 463.76 279.55 449.36 279.98 435.28 279.35 421.57 278.57 408.26 278.63 395.4 280.41 383 284.55 371.07 291.35 359.61 300.68 348.63 312.03 338.09 324.54 327.98 337.13 318.27 348.69 308.9 358.23 299.85 365.05 291.05 368.69 274.07 366.04 257.35 365.4 231.94 367.4 223.35" stroke-dasharray="8 4" transform="rotate(36.36, 400, 400)" opacity="0.39"></path><path d="M368.98 234.45C371.86 227.75 383.13 232.3 388.14 242.24Q397.11 254.46 408.69 266.48 422.03 278.27 436.05 289.78 449.53 300.99 461.31 311.88 470.43 322.42 476.28 332.59 478.68 342.39 477.95 351.82 474.83 360.87 470.41 369.57 464.13 385.83 464.99 401.26 471.45 408.57 481.54 415.74 494.66 422.81 509.76 429.83 525.51 436.87 540.45 443.99 553.22 451.23 562.72 458.68 567.98 474.55 562.86 491.49 556.66 500.68 550.64 510.36 546.32 520.53 545.06 531.21C546.59 539.23 541.97 546.59 534.06 546.03Q524.3 547.22 514.55 550.43 504.8 555.43 495.04 561.9 485.29 569.4 475.53 577.45 465.78 585.52 456.02 593.07 446.27 599.61 436.51 604.7 426.76 608.02 417.01 609.33 407.25 608.56 397.5 605.76 387.74 601.1 377.99 594.91 368.23 587.57 358.48 579.59 348.73 571.48 338.97 563.78 329.22 557 319.46 551.58 309.71 547.88 299.96 546.14 290.2 546.48 280.45 548.88 270.69 553.17 260.94 559.08 251.19 566.21 241.43 574.1 231.68 582.23 221.92 590.06C214.01 595.83 208.63 590.19 212.95 580.31Q220.45 566.39 229.43 552.31 239.41 538.12 249.75 523.9 259.75 509.71 268.7 495.62 276.03 481.68 281.37 467.96 284.62 454.49 285.98 441.34 285.9 428.53 285.06 416.1 284.29 404.07 284.4 392.46 286.13 381.28 290.01 370.52 296.29 360.19 304.89 350.26 315.39 340.72 327.1 331.54 339.16 322.69 350.61 314.12 360.55 305.81 368.27 297.69 374.53 281.92 373.95 266.33 369.3 242.51 368.98 234.45" stroke-dasharray="6 7" transform="rotate(40.400000000000006, 400, 400)" opacity="0.43"></path><path d="M373.59 245.57C374.06 239.32 384.68 243.69 391.74 253.04Q402.5 264.56 414.84 275.9 427.86 287.04 440.58 297.94 452.04 308.58 461.4 318.94 468.06 328.99 471.74 338.73 472.52 348.13 470.83 357.2 467.41 365.93 463.24 374.33 458.06 390.07 459.51 404.96 465.55 411.99 474.76 418.84 486.66 425.54 500.46 432.13 515.1 438.67 529.39 445.21 542.18 451.78 552.49 458.45 561.43 472.37 560.45 487.01 555.58 494.86 549.8 503.06 544.37 511.66 540.55 520.68C539.4 527.45 531.56 535.43 524.14 536.52Q515 539.43 505.86 543.91 496.72 549.71 487.58 556.48 478.44 563.84 469.29 571.35 460.15 578.59 451.01 585.14 441.87 590.61 432.73 594.68 423.59 597.13 414.44 597.81 405.3 596.67 396.16 593.8 387.02 589.35 377.88 583.57 368.74 576.81 359.59 569.46 350.45 561.95 341.31 554.7 332.17 548.13 323.03 542.64 313.89 538.53 304.74 536.05 295.6 535.34 286.46 536.44 277.32 539.28 268.18 543.7 259.03 549.45 249.89 556.19 240.75 563.54 231.61 571.06C224.19 576.99 220.64 572.3 225.89 562.73Q234.32 549.38 243.7 535.99 253.5 522.63 263.12 509.35 271.97 496.21 279.51 483.24 285.38 470.49 289.38 458.01 291.55 445.82 292.16 433.95 291.68 422.44 290.73 411.29 289.99 400.52 290.17 390.13 291.85 380.12 295.47 370.49 301.25 361.22 309.11 352.29 318.75 343.69 329.63 335.38 341.05 327.34 352.2 319.53 362.32 311.91 370.72 304.45 379.52 289.85 381.53 275.35 375.36 253.1 373.59 245.57" stroke-dasharray="9 6" transform="rotate(44.44, 400, 400)" opacity="0.47"></path><path d="M380.67 256.72C379.51 250.9 389.56 255.07 397.89 263.84Q409.37 274.64 421.43 285.3 433.26 295.78 444.08 306.06 453.21 316.11 460.11 325.92 464.49 335.47 466.31 344.74 465.8 353.72 463.46 362.41 456.43 378.75 451.02 394.22 455.45 408.36 468.01 421.82 478.75 428.22 491.26 434.47 504.72 440.62 518.19 446.7 530.73 452.75 541.48 458.8 553.52 471.17 556.68 483.94 548.7 497.76 538.75 512.42C535.95 518.07 525.84 526.53 518.85 528.94Q510.25 533.11 501.65 538.41 493.04 544.58 484.44 551.29 475.83 558.22 467.23 565.01 458.63 571.32 450.02 576.82 441.42 581.25 432.81 584.38 415.61 585.39 398.4 581.83 389.79 577.6 381.19 572.24 372.59 566.04 363.98 559.31 355.38 552.38 346.77 545.61 338.17 539.33 329.57 533.88 320.96 529.51 312.36 526.45 295.15 525.59 277.94 529.3 269.34 533.6 260.74 539 252.13 545.24 243.53 551.99C236.55 557.61 234.54 553.52 240.42 544.49Q249.28 531.99 258.52 519.56 267.66 507.25 276.18 495.11 283.65 483.16 289.7 471.43 294.13 459.97 296.89 448.78 298.13 437.9 298.13 427.34 297.36 417.11 296.35 407.21 295.69 397.65 295.94 388.43 297.57 379.54 300.94 370.97 306.21 362.7 313.35 354.71 322.14 346.99 332.14 339.5 342.82 332.22 353.52 325.12 363.59 318.16 372.42 311.32 383.49 297.84 388.3 284.41 382.93 263.72 380.67 256.72" stroke-dasharray="5 0" transform="rotate(48.48, 400, 400)" opacity="0.51"></path><path d="M389.28 267.86C387.39 262.48 396.9 266.43 405.59 274.62Q416.71 284.7 427.57 294.66 437.55 304.47 446.1 314.11 452.8 323.56 457.38 332.81 459.2 350.48 455.92 367.43 449.54 383.08 445.22 397.96 449.77 411.61 461.31 424.59 470.93 430.73 482.17 436.71 494.41 442.55 506.93 448.28 518.97 453.92 529.8 459.51 544.23 470.68 551.17 481.98 546.77 493.84 538.4 506.24C535 510.94 523.84 519.64 517.25 522.99Q501.02 533.62 484.8 546.1 468.57 558.28 452.34 568.07 436.11 573.76 419.89 574.39 403.66 569.85 387.43 560.91 371.21 549.12 354.98 536.51 338.75 525.25 322.52 517.29 306.29 514 290.07 515.94 273.84 522.78 257.61 533.34C251.02 538.29 250.08 534.51 256.17 526.22Q264.86 514.8 273.44 503.53 281.49 492.44 288.64 481.55 294.59 470.89 299.15 460.48 302.23 450.34 303.9 440.47 304.36 430.89 303.91 421.6 302.17 404.06 301.71 387.4 307.24 372.09 317.63 357.52 325.55 350.61 334.66 343.88 344.51 337.31 354.61 330.87 364.43 324.54 373.42 318.29 386.32 305.9 393.85 293.5 391.18 274.34 389.28 267.86" stroke-dasharray="6 6" transform="rotate(52.52, 400, 400)" opacity="0.54"></path><path d="M398.3 279.02C396.53 274.07 405.48 277.8 413.65 285.39Q432.43 304 446.32 322.12 453.24 339.6 453.18 356.34 448.32 372.25 442.37 387.28 439.51 401.4 443.11 414.64 454.65 427.04 473.21 438.7 495.66 449.74 517.6 460.31 534.62 470.59 543.71 480.79 544.22 491.12 538.13 501.78C535.05 505.74 524.07 514.42 517.88 518.29Q502.59 529.19 487.31 540.68 472.03 551.07 456.75 558.85 441.47 562.86 426.19 562.51 410.9 557.85 395.62 549.57 380.34 538.89 365.06 527.38 349.78 516.74 334.49 508.52 319.21 503.95 303.93 503.69 288.65 507.79 273.37 515.63C267.17 519.63 266.69 515.95 272.55 508.51Q287.95 488.36 300.22 469.02 307.78 450.61 310.42 433.2 309.5 416.81 307.53 401.43 307.49 387.01 311.88 373.47 321.94 360.68 337.2 348.51 355.54 336.79 373.8 325.35 388.69 314.02 397.87 302.63 399.47 285.01 398.3 279.02" stroke-dasharray="1 6" transform="rotate(56.56, 400, 400)" opacity="0.58"></path><path d="M406.48 290.18C405.52 285.67 413.9 289.16 420.8 296.14Q435.34 313.31 444.59 330.06 447.8 346.3 445.78 361.92 440.73 376.86 435.72 391.07 433.88 404.51 437.64 417.17 448.03 429.09 464.37 440.31 484.44 450.9 504.97 460.96 522.48 470.62 534.18 480.01 538.71 489.28 536.53 498.6C534.49 502 524.74 510.41 518.94 514.42Q504.63 524.79 490.33 534.84 476.02 543.31 461.71 549.17 447.41 551.67 433.1 550.52 418.79 545.85 404.48 538.25 390.18 528.65 375.87 518.24 361.56 508.32 347.25 500.12 332.95 494.65 318.64 492.58 304.33 494.18 290.02 499.25C284.22 502.16 283.69 498.4 288.87 491.92Q301.6 474.45 310.74 457.79 315.58 441.98 316.51 427.06 314.97 412.99 313.11 399.75 313.27 387.26 317.35 375.44 326.29 364.18 339.79 353.36 356.37 342.84 373.64 332.5 388.98 322.18 400.15 311.77 406.2 295.66 406.48 290.18" stroke-dasharray="6 6" transform="rotate(60.599999999999994, 400, 400)" opacity="0.62"></path><path d="M412.73 301.35C412.98 297.26 420.73 300.5 425.92 306.88Q435.85 322.58 440.91 337.94 441.24 352.89 438.03 367.35 433.24 381.26 429.26 394.57 428.35 407.25 432.19 419.28 441.45 430.67 455.68 441.42 473.34 451.59 492.09 461.23 509.33 470.41 522.67 479.22 530.55 487.76 532.51 496.15C531.88 499.16 524.1 507.04 518.72 510.83Q505.46 520.06 492.21 528.37 478.95 534.9 465.69 538.98 452.43 540.2 439.17 538.42 425.91 533.83 412.66 526.91 399.4 518.36 386.14 509.05 372.88 499.96 359.62 492 346.36 485.99 333.1 482.56 319.84 482.05 306.58 484.51C301.21 486.31 300.18 482.4 304.35 476.9Q313.95 462.1 320.04 448.04 322.55 434.7 322.19 422.09 320.32 410.15 318.69 398.85 319.06 388.11 322.82 377.85 330.68 367.99 342.46 358.41 357.16 349.02 373.08 339.72 388.22 330.39 400.65 320.95 410.87 306.32 412.73 301.35" stroke-dasharray="7 4" transform="rotate(64.64, 400, 400)" opacity="0.66"></path><path d="M416.25 312.54C417.81 308.87 424.86 311.85 428.2 317.62Q433.77 331.83 435.43 345.78 433.81 359.4 430.1 372.65 425.92 385.46 423.01 397.79 422.91 409.63 426.73 420.93 434.91 431.7 447.14 441.94 462.4 451.67 479.1 460.9 495.37 469.68 509.37 478.05 519.62 486.09 525.25 493.86C526.1 496.61 520.59 503.75 515.68 507.06Q503.58 514.72 491.48 521.14 479.37 525.81 467.27 528.31 455.17 528.46 443.06 526.23 430.96 521.82 418.85 515.58 406.75 508.04 394.65 499.83 382.54 491.63 370.44 484.12 358.33 477.92 346.23 473.56 334.13 471.4 322.02 471.61C317.11 472.38 315.33 468.32 318.33 463.77Q324.72 451.52 328.1 439.87 328.77 428.8 327.56 418.28 325.62 408.26 324.3 398.7 324.87 389.52 328.3 380.67 335.11 372.07 345.23 363.65 357.99 355.32 372.26 347.01 386.58 338.65 399.48 330.16 412.95 317.01 416.25 312.54" stroke-dasharray="1 7" transform="rotate(68.68, 400, 400)" opacity="0.70"></path><path d="M416.59 323.73C419.28 320.48 425.55 323.18 427.21 328.33Q429.2 341.04 428.48 353.55 425.8 365.81 422.2 377.78 418.87 389.42 416.98 400.7 417.56 411.59 421.27 422.08 428.41 432.14 438.76 441.78 451.67 450.98 466.14 459.77 480.89 468.15 494.61 476.15 506.1 483.8 514.43 491.14C516.55 493.71 513.24 499.95 508.85 502.6Q498.01 508.45 487.17 513.01 476.33 515.97 465.49 517.15 454.65 516.46 443.81 513.95 432.97 509.79 422.13 504.25 411.29 497.69 400.45 490.54 389.61 483.29 378.77 476.4 367.93 470.33 357.09 465.48 346.25 462.17 335.41 460.61C331.02 460.51 328.42 456.39 330.28 452.7Q333.75 442.78 334.95 433.3 332.62 415.74 329.94 399.2 330.68 391.42 333.78 383.83 339.6 376.39 348.12 369.03 358.93 361.7 371.32 354.35 384.33 346.93 396.87 339.38 412.25 327.69 416.59 323.73" stroke-dasharray="5 2" transform="rotate(72.72, 400, 400)" opacity="0.73"></path><path d="M413.8 334.94C417.21 332.1 422.67 334.51 423.02 339.04Q422.52 350.23 420.48 361.26 417.54 372.12 414.49 382.76 412.13 393.16 411.19 403.31 412.29 413.16 415.82 422.72 421.95 431.96 430.54 440.87 441.21 449.45 453.35 457.69 466.18 465.6 478.82 473.19 490.42 480.46 500.19 487.44C503.14 489.89 501.66 495.14 497.81 497.06Q488.33 501.07 478.85 503.9 469.37 505.41 459.89 505.52 450.41 504.23 440.93 501.6 431.45 497.77 421.97 492.92 412.49 487.31 403 481.21 393.52 474.94 384.04 468.8 374.56 463.12 365.08 458.18 355.6 454.23 346.12 451.46C342.26 450.71 339.05 446.64 339.89 443.72Q340.22 428.37 337.67 413.84 336.35 400.35 339.27 387.28 344.14 380.89 351.14 374.53 360.05 368.16 370.44 361.74 381.72 355.24 393.19 348.62 408.96 338.4 413.8 334.94" stroke-dasharray="2 3" transform="rotate(76.76, 400, 400)" opacity="0.77"></path><path d="M408.36 346.15C411.97 343.73 416.6 345.83 416.15 349.73Q411.95 368.91 407.17 387.59 405.65 405.61 410.38 422.84 422.49 439.18 440.88 454.56 462.47 468.95 483.08 482.35C486.37 484.66 486.15 488.89 482.88 490.09Q466.76 493.76 450.63 493.44 434.51 489.17 418.39 481.58 402.27 471.79 386.14 461.24 370.02 451.48 353.9 443.95C350.63 442.81 347.12 438.96 347.22 436.69Q345.67 424.51 342.62 412.95 341.36 401.83 344.75 390.95 354.33 380.11 369.77 369.15 388.91 357.88 408.36 346.15 408.36 346.15 408.36 346.15" stroke-dasharray="9 0" transform="rotate(80.80000000000001, 400, 400)" opacity="0.81"></path><path d="M401.14 357.36C404.48 355.35 408.26 357.14 407.52 360.4Q403.44 376.5 400.36 392.27 400.36 407.61 404.93 422.44 414.61 436.7 428.83 450.32 446.05 463.26 464.04 475.5C467.16 477.64 467.58 480.89 464.9 481.46Q451.66 482.58 438.43 480.93 425.19 476.68 411.96 470.25 398.72 462.31 385.48 453.67 372.24 445.22 359.01 437.83C356.32 436.53 352.91 433.06 352.6 431.32Q350.1 421.88 347.65 412.72 347.17 403.71 350.24 394.76 357.69 385.75 369.46 376.58 384.53 367.14 401.14 357.36 401.14 357.36 401.14 357.36" stroke-dasharray="0 5" transform="rotate(84.84, 400, 400)" opacity="0.85"></path><path d="M393.27 368.6C395.95 366.99 398.91 368.44 398.27 371.07Q395.49 384.04 394.2 396.81 395.33 409.33 399.49 421.55 406.9 433.43 417.31 444.95 430.06 456.05 444.16 466.73C446.76 468.62 447.31 470.98 445.21 471.07Q434.83 470.42 424.44 468.06 414.06 464.14 403.67 458.92 393.28 452.75 382.9 446.02 372.51 439.19 362.12 432.71C360.02 431.48 357.08 428.54 356.66 427.23Q353.73 412.93 355.73 398.67 361.26 391.43 369.66 384.03 386.93 372.51 393.27 368.6" stroke-dasharray="1 10" transform="rotate(88.88, 400, 400)" opacity="0.89"></path><path d="M385.99 379.83C387.81 378.64 389.99 379.75 389.67 381.72Q388.8 401.2 394.05 420.17 406.39 438.48 424.64 455.98C426.49 457.52 426.86 459.11 425.31 458.9Q410.06 454.83 394.81 447.58 379.55 438.24 364.3 428.17C362.75 427.16 360.57 424.89 360.27 423.93Q358.38 413.35 361.23 402.58 378.25 385.64 385.99 379.83" stroke-dasharray="3 8" transform="rotate(92.92, 400, 400)" opacity="0.92"></path><path d="M380.43 391.08C381.42 390.27 382.85 391.03 382.85 392.36Q384.24 405.46 388.61 418.36 396.13 431.01 406.56 443.36C407.62 444.46 407.7 445.41 406.7 445.11Q396.73 441.31 386.75 436.26 376.78 430.28 366.81 423.76C365.8 423.09 364.48 421.55 364.37 420.9Q374.31 398.69 380.43 391.08" stroke-dasharray="5 2" transform="rotate(96.96, 400, 400)" opacity="0.96"></path></g></svg>