<svg xmlns="http://www.w3.org/2000/svg" version="1.1" xmlns:xlink="http://www.w3.org/1999/xlink" xmlns:svgjs="http://svgjs.dev/svgjs" viewBox="0 0 800 800"><defs><linearGradient x1="50%" y1="0%" x2="50%" y2="100%" id="ccchaos-grad"><stop stop-color="hsl(206, 75%, 49%)" stop-opacity="1" offset="0%"></stop><stop stop-color="hsl(331, 90%, 56%)" stop-opacity="1" offset="100%"></stop></linearGradient></defs><g stroke-width="2.5" stroke="url(#ccchaos-grad)" fill="none" stroke-linecap="round"><path d="M381.15 43.64C389.73 42.37 406.67 41.3 415.03 41.52 426.17 42.37 437.15 44.29 448.03 47.24 458.99 50.67 469.94 55.04 480.94 60.27 492.15 65.81 503.56 72.06 515.22 78.91 527.25 85.85 539.66 93.24 552.48 100.96 565.71 108.56 579.34 116.37 593.28 124.34 607.4 132.02 621.56 139.79 635.49 147.63 649.01 155.1 661.75 162.64 673.32 170.24 683.64 177.5 692.2 184.86 698.65 192.36 703.35 199.58 705.79 207 706.01 214.65 704.96 222.1 702.39 229.85 698.84 237.9 695.7 245.84 692.97 254.13 691.4 262.8 692.21 271.4 695.26 280.41 700.84 289.8 709.32 299.16 719.94 308.93 732.03 319.1 745.05 329.24 757.58 339.78 768.41 350.72 773.02 356.18 776.82 361.74 779.68 367.4 781.68 373.06 782.61 378.81 782.43 384.67 781.28 390.52 779.08 396.41 775.88 402.33 771.92 408.25 767.17 414.2 761.77 420.19 749.9 432.17 737.14 444.31 724.68 456.57 713.87 468.9 705.09 481.39 698.78 494.04 695.54 506.77 694.73 519.68 695.88 532.73 699.01 545.87 702.76 559.15 706.34 572.48 709.77 585.85 711.69 599.2 711.68 612.43 710.04 625.53 705.99 638.34 699.61 650.71 691.46 662.7 681.35 674 669.68 684.43 656.99 694.17 643.4 702.78 629.34 710.09 615.11 716.45 600.91 721.33 586.97 724.64 573.39 726.94 560.26 727.71 547.61 726.97 535.46 725.53 523.73 722.9 512.36 719.28 501.37 715.63 490.58 711.55 479.89 707.36 469.42 704.03 458.89 701.21 448.26 699.19 437.7 698.8 426.94 699.62 415.94 701.77 410.45 703.55 404.89 705.67 399.26 708.1 393.64 710.96 387.95 714.1 382.2 717.48 376.44 721.21 370.7 725.06 364.96 728.98 359.23 733.1 353.52 737.19 347.83 741.2 336.47 749.32 325.25 756.52 314.22 762.44 303.27 767.47 292.57 770.67 282.21 771.87 271.96 771.61 262.09 769.21 252.66 764.77 243.36 758.85 234.52 751.12 226.16 741.8 217.88 731.46 210.03 719.97 202.62 707.61 195.15 694.84 188 681.62 181.12 668.21 174.01 654.9 167.03 641.68 160.14 628.69 152.87 616.13 145.61 603.9 138.37 592.06 130.75 580.73 123.19 569.76 115.77 559.11 108.17 548.92 100.89 538.94 94.05 529.1 87.34 519.6 81.27 510.12 75.96 500.58 71 491.24 66.88 481.74 63.64 472.03 60.75 462.41 58.66 452.51 57.33 442.31 56.12 432.12 55.47 421.59 55.33 410.72 55.17 402.52 55.18 385.69 55.31 377.06 55.37 368.38 55.7 350.99 55.99 342.3 56.24 330.73 56.93 319.2 58.11 307.77 59.33 296.4 61.23 285.18 63.88 274.18 66.84 263.28 70.67 252.64 75.34 242.33 80.4 232.17 86.27 222.39 92.85 213.06 99.64 203.91 106.97 195.24 114.7 187.1 122.34 179.16 130.19 171.75 138.16 164.93 145.78 158.24 153.44 152.11 161.1 146.53 168.35 140.99 175.66 135.94 183.04 131.33 190.13 126.64 197.41 122.29 204.94 118.25 212.35 113.94 220.12 109.84 228.27 105.89 236.45 101.54 245.07 97.27 254.13 93.08 263.27 88.42 272.86 83.81 282.84 79.3 292.9 74.39 303.33 69.65 314.05 65.16 324.83 60.47 335.85 56.18 347.06 52.41 352.67 50.55 358.32 48.86 364 47.35 369.69 45.9 375.4 44.66 381.14 43.64" stroke-dasharray="0 0" transform="rotate(0, 400, 400)" opacity="0.97"></path><path d="M381.72 57.68C392.73 55.9 403.7 55.12 414.63 55.35 425.58 56.07 436.54 57.83 447.51 60.57 458.59 63.79 469.78 67.93 481.11 72.9 492.64 78.2 504.42 84.22 516.47 90.83 528.8 97.58 541.44 104.78 554.37 112.35 567.51 119.85 580.85 127.59 594.22 135.51 607.52 143.2 620.54 151 633.02 158.87 644.85 166.43 655.65 174.06 665.08 181.74 673.26 189.1 679.66 196.56 684.09 204.11 687.05 211.39 688.1 218.83 687.37 226.46 685.87 233.87 683.35 241.53 680.35 249.46 678.12 257.24 676.62 265.34 676.44 273.76 678.57 282.1 682.81 290.8 689.28 299.87 698.24 308.88 708.91 318.29 720.66 328.07 733.01 337.83 744.68 347.99 754.62 358.54 762.39 369.07 766.79 380.01 767.28 391.36 764.33 402.71 757.75 414.22 748.29 425.86 737.26 437.53 725.23 449.36 713.24 461.33 702.52 473.35 693.41 485.53 686.39 497.85 682.07 510.22 679.99 522.73 679.82 535.33 681.69 547.96 684.45 560.66 687.44 573.33 690.7 585.96 692.99 598.47 693.84 610.76 693.53 622.85 691.18 634.55 686.77 645.71 680.78 656.44 672.86 666.43 663.28 675.5 652.55 683.9 640.68 691.19 628.01 697.21 614.9 702.39 601.48 706.2 588.01 708.58 574.63 710.13 561.46 710.32 548.6 709.23 536.06 707.62 523.87 705.02 512.03 701.64 500.5 698.36 489.23 694.78 478.16 691.19 467.3 688.46 456.52 686.25 445.78 684.79 435.13 684.83 424.43 685.97 413.65 688.28 402.89 692.27 392.01 697.38 381.01 703.45 370.02 710.73 359.17 718.27 348.51 725.7 337.86 733.34 327.42 740.17 317.24 745.88 307.11 750.85 297.28 754.2 287.81 755.77 278.4 756.06 269.37 754.41 260.76 750.87 252.21 745.99 244.07 739.39 236.33 731.25 228.59 722.1 221.2 711.76 214.13 700.49 206.92 688.71 199.93 676.36 193.12 663.67 186 650.94 178.96 638.14 171.95 625.43 164.56 612.99 157.16 600.77 149.79 588.83 142.08 577.3 134.48 566.06 127.06 555.11 119.53 544.55 112.37 534.22 105.7 524.06 99.22 514.21 93.41 504.44 88.38 494.69 83.73 485.14 79.92 475.52 76.99 465.79 74.41 456.16 72.61 446.34 71.55 436.31 70.59 426.32 70.16 416.08 70.2 405.59 70.02 395.1 70.12 384.34 70.46 373.33 70.4 362.32 70.56 351.33 70.96 340.41 71.06 329.5 71.55 318.69 72.5 308.02 73.45 297.4 75.06 286.96 77.39 276.77 80.03 266.67 83.51 256.85 87.84 247.38 92.57 238.03 98.13 229.07 104.42 220.55 110.98 212.17 118.11 204.26 125.7 196.85 133.28 189.58 141.13 182.81 149.13 176.57 156.87 170.42 164.66 164.75 172.46 159.57 179.88 154.39 187.31 149.61 194.77 145.22 201.89 140.69 209.13 136.45 216.54 132.47 223.73 128.19 231.19 124.08 238.94 120.09 246.63 115.7 254.68 111.37 263.11 107.1 271.56 102.4 280.4 97.75 289.63 93.2 298.89 88.29 308.53 83.55 318.49 79.07 328.48 74.42 338.78 70.16 349.33 66.42 359.89 62.77 370.69 59.82 381.71 57.68" stroke-dasharray="0 0" transform="rotate(4.782608695652174, 400, 400)" opacity="0.22"></path><path d="M385.21 71.72C395.84 69.91 406.53 69.07 417.29 69.2 428.08 69.79 438.97 71.38 449.98 73.91 461.09 76.91 472.37 80.8 483.83 85.5 495.45 90.55 507.31 96.29 519.39 102.65 531.62 109.16 544.06 116.15 556.61 123.53 569.2 130.87 581.75 138.5 594.09 146.33 606.12 153.98 617.64 161.77 628.37 169.65 638.32 177.26 647.1 184.95 654.45 192.7 660.63 200.16 665.14 207.7 667.91 215.33 669.54 222.69 669.64 230.18 668.41 237.82 666.85 245.24 664.73 252.87 662.53 260.73 661.37 268.42 661.14 276.39 662.29 284.65 665.64 292.8 670.89 301.28 678.07 310.09 687.32 318.83 697.91 327.94 709.22 337.41 720.86 346.84 731.67 356.66 740.76 366.86 747.8 377.04 751.75 387.62 752.13 398.6 749.44 409.59 743.42 420.74 734.73 432.03 724.53 443.34 713.25 454.8 701.79 466.39 691.27 478.02 681.99 489.78 674.42 501.63 669.19 513.52 665.96 525.49 664.54 537.49 665.13 549.49 666.79 561.46 668.96 573.32 671.75 585.08 674.02 596.65 675.32 607.89 675.91 618.88 674.87 629.4 672.08 639.32 667.99 648.8 662.1 657.49 654.57 665.26 645.89 672.4 635.93 678.46 624.96 683.33 613.35 687.46 601.16 690.36 588.64 691.97 575.97 692.92 563.27 692.7 550.67 691.38 538.21 689.72 525.97 687.26 513.99 684.18 502.23 681.3 490.72 678.25 479.44 675.24 468.33 673.1 457.38 671.46 446.57 670.52 435.85 670.95 425.2 672.36 414.59 674.8 404.01 678.75 393.44 683.67 382.87 689.41 372.31 696.25 361.99 703.29 351.94 710.23 341.89 717.4 332.13 723.86 322.67 729.33 313.23 734.2 304.12 737.64 295.37 739.5 286.64 740.26 278.27 739.26 270.28 736.54 262.27 732.62 254.61 727.08 247.29 720.07 239.88 712.08 232.73 702.91 225.82 692.75 218.69 682.03 211.7 670.64 204.82 658.8 197.6 646.79 190.41 634.59 183.23 622.33 175.69 610.21 168.16 598.2 160.67 586.36 152.92 574.81 145.32 563.49 137.96 552.4 130.57 541.64 123.6 531.08 117.17 520.71 110.99 510.62 105.5 500.63 100.8 490.72 96.51 481 93.05 471.28 90.45 461.52 88.19 451.87 86.68 442.12 85.87 432.25 85.15 422.42 84.92 412.43 85.11 402.28 85.05 392.14 85.23 381.81 85.61 371.32 85.56 360.83 85.67 350.42 85.96 340.13 85.94 329.85 86.26 319.72 86.98 309.78 87.69 299.87 89.02 290.18 91.03 280.77 93.33 271.42 96.45 262.37 100.39 253.69 104.75 245.09 109.93 236.88 115.87 229.1 122.12 221.42 128.99 214.19 136.36 207.42 143.81 200.75 151.58 194.53 159.56 188.79 167.37 183.08 175.26 177.8 183.19 172.94 190.79 168.02 198.4 163.45 206.01 159.22 213.28 154.8 220.6 150.61 228.03 146.64 235.19 142.36 242.53 138.2 250.09 134.15 257.5 129.71 265.2 125.32 273.22 120.98 281.17 116.24 289.49 111.56 298.15 106.98 306.8 102.08 315.82 97.36 325.18 92.91 334.54 88.3 344.23 84.1 354.25 80.4 364.25 76.79 374.58 73.86 385.2 71.72" stroke-dasharray="0 0" transform="rotate(9.565217391304348, 400, 400)" opacity="0.29"></path><path d="M391.07 85.75C401.36 83.94 411.79 83.04 422.34 83.07 432.93 83.53 443.68 84.95 454.58 87.27 465.55 90.04 476.71 93.67 488.04 98.09 499.46 102.85 511.06 108.31 522.77 114.37 534.53 120.62 546.34 127.36 558.09 134.5 569.7 141.65 581.07 149.11 592.02 156.81 602.52 164.37 612.31 172.1 621.17 179.94 629.23 187.57 636.08 195.28 641.53 203.07 645.98 210.6 648.97 218.21 650.49 225.89 651.23 233.33 650.82 240.88 649.5 248.55 648.23 256.02 646.77 263.65 645.56 271.47 645.54 279.13 646.56 287.03 648.96 295.16 653.37 303.19 659.45 311.5 667.15 320.11 676.54 328.65 686.91 337.51 697.71 346.71 708.59 355.86 718.55 365.37 726.81 375.24 733.17 385.09 736.69 395.32 736.98 405.94 734.52 416.55 729.05 427.31 721.1 438.2 711.71 449.09 701.19 460.12 690.31 471.25 680.09 482.4 670.77 493.64 662.82 504.93 656.85 516.22 652.62 527.54 650.05 538.82 649.41 550.05 649.9 561.19 651.11 572.14 653.19 582.95 655.13 593.47 656.49 603.61 657.55 613.47 657.39 622.8 655.83 631.49 653.28 639.74 649.15 647.2 643.5 653.75 636.8 659.72 628.77 664.69 619.63 668.55 609.77 671.8 599.12 673.93 587.92 674.94 576.39 675.44 564.6 674.94 552.71 673.53 540.78 671.92 528.91 669.66 517.18 666.94 505.55 664.5 494.1 661.97 482.86 659.54 471.73 657.96 460.79 656.85 450.02 656.38 439.34 657.17 428.78 658.81 418.36 661.35 407.97 665.23 397.67 669.95 387.47 675.37 377.27 681.78 367.39 688.35 357.85 694.81 348.29 701.51 339.06 707.59 330.16 712.8 321.26 717.54 312.69 721.01 304.47 723.09 296.22 724.24 288.3 723.81 280.71 721.82 273.04 718.77 265.66 714.2 258.54 708.25 251.27 701.39 244.18 693.35 237.26 684.32 230.08 674.69 222.98 664.33 215.93 653.43 208.55 642.27 201.19 630.8 193.83 619.16 186.15 607.55 178.52 595.92 170.97 584.37 163.25 573 155.73 561.78 148.5 550.74 141.34 539.94 134.64 529.31 128.52 518.86 122.7 508.63 117.59 498.53 113.27 488.54 109.37 478.72 106.28 468.95 104.03 459.2 102.09 449.56 100.87 439.88 100.3 430.17 99.8 420.5 99.74 410.75 100.06 400.92 100.11 391.09 100.36 381.17 100.76 371.15 100.71 361.14 100.78 351.27 101 341.58 100.87 331.89 101.04 322.4 101.58 313.13 102.07 303.89 103.12 294.9 104.82 286.2 106.77 277.55 109.51 269.21 113.05 261.24 116.99 253.32 121.75 245.79 127.27 238.66 133.14 231.6 139.67 224.95 146.74 218.74 153.96 212.57 161.56 206.81 169.44 201.47 177.23 196.12 185.17 191.14 193.18 186.52 200.94 181.8 208.71 177.38 216.49 173.23 223.96 168.86 231.46 164.7 239 160.7 246.26 156.39 253.64 152.18 261.17 148.05 268.5 143.55 276.05 139.1 283.85 134.7 291.54 129.92 299.52 125.22 307.82 120.64 316.06 115.76 324.64 111.08 333.56 106.66 342.44 102.12 351.69 97.98 361.27 94.34 370.84 90.79 380.77 87.9 391.06 85.76" stroke-dasharray="0 0" transform="rotate(14.347826086956522, 400, 400)" opacity="0.67"></path><path d="M398.36 99.79C408.33 97.97 418.47 97.03 428.74 96.95 439.04 97.3 449.51 98.54 460.11 100.65 470.76 103.19 481.56 106.55 492.47 110.67 503.39 115.14 514.4 120.28 525.4 126.03 536.33 131.98 547.16 138.43 557.76 145.29 568.11 152.21 578.05 159.46 587.4 166.96 596.25 174.39 604.27 182 611.31 189.75 617.6 197.34 622.73 205.03 626.6 212.81 629.69 220.37 631.55 228.02 632.26 235.73 632.54 243.23 632.02 250.83 630.98 258.53 630.28 266.04 629.68 273.69 629.55 281.49 630.69 289.14 632.9 296.98 636.41 305.03 641.71 312.97 648.43 321.16 656.46 329.6 665.84 337.97 675.89 346.62 686.09 355.57 696.21 364.48 705.32 373.7 712.79 383.26 718.5 392.79 721.62 402.67 721.83 412.89 719.6 423.11 714.63 433.45 707.39 443.88 698.79 454.32 689.03 464.85 678.79 475.43 668.95 486.02 659.73 496.66 651.55 507.29 645.01 517.9 639.95 528.47 636.37 538.93 634.55 549.32 633.89 559.54 634.06 569.51 635.25 579.31 636.59 588.77 637.7 597.78 638.83 606.5 639.14 614.67 638.4 622.17 636.99 629.26 634.26 635.58 630.2 641.02 625.27 645.97 619.06 649.97 611.73 652.99 603.67 655.5 594.72 657.02 585.06 657.59 574.97 657.77 564.43 657.13 553.59 655.73 542.59 654.25 531.48 652.27 520.36 649.94 509.23 647.96 498.18 645.95 487.26 644.08 476.4 643.02 465.68 642.4 455.13 642.36 444.64 643.46 434.29 645.3 424.11 647.91 413.96 651.71 403.94 656.22 394.07 661.33 384.2 667.32 374.69 673.42 365.54 679.42 356.36 685.67 347.53 691.36 339.05 696.3 330.52 700.87 322.32 704.33 314.44 706.56 306.49 708.02 298.82 708.07 291.44 706.72 283.93 704.44 276.64 700.77 269.55 695.81 262.26 690.01 255.11 683.07 248.05 675.15 240.73 666.62 233.46 657.33 226.21 647.43 218.67 637.21 211.14 626.59 203.64 615.7 195.89 604.74 188.23 593.67 180.71 582.57 173.1 571.57 165.75 560.63 158.76 549.8 151.91 539.13 145.56 528.6 139.83 518.21 134.43 508 129.75 497.91 125.85 487.94 122.36 478.11 119.66 468.37 117.75 458.69 116.14 449.1 115.19 439.54 114.85 430 114.53 420.5 114.62 410.99 115.05 401.47 115.19 391.96 115.49 382.41 115.91 372.84 115.87 363.28 115.91 353.91 116.06 344.77 115.86 335.63 115.91 326.73 116.27 318.08 116.57 309.44 117.38 301.08 118.77 293.03 120.39 285 122.74 277.3 125.86 269.96 129.36 262.64 133.66 255.7 138.71 249.13 144.13 242.6 150.23 236.45 156.91 230.69 163.81 224.93 171.14 219.53 178.82 214.51 186.49 209.43 194.37 204.67 202.38 200.22 210.22 195.63 218.12 191.29 226.04 187.18 233.7 182.83 241.38 178.65 249.09 174.6 256.53 170.24 264.05 165.97 271.65 161.76 279.05 157.2 286.61 152.69 294.35 148.24 301.94 143.45 309.78 138.74 317.87 134.16 325.88 129.33 334.19 124.7 342.81 120.34 351.38 115.89 360.29 111.82 369.55 108.24 378.78 104.77 388.38 101.93 398.35 99.79" stroke-dasharray="0 0" transform="rotate(19.130434782608695, 400, 400)" opacity="0.73"></path><path d="M405.91 113.83C415.56 112.02 425.34 111.03 435.23 110.86 445.14 111.09 455.17 112.17 465.29 114.06 475.42 116.36 485.63 119.45 495.84 123.26 506.02 127.42 516.16 132.23 526.16 137.64 536.02 143.26 545.64 149.38 554.87 155.93 563.81 162.58 572.21 169.56 579.92 176.82 587.14 184.05 593.52 191.49 598.92 199.09 603.7 206.58 607.44 214.2 610.1 221.91 612.23 229.45 613.4 237.08 613.73 244.78 613.92 252.31 613.65 259.92 613.16 267.63 613.23 275.16 613.61 282.82 614.6 290.59 616.85 298.23 620.13 306.03 624.59 314 630.6 321.87 637.77 329.95 645.96 338.23 655.18 346.45 664.8 354.91 674.36 363.62 683.69 372.3 691.98 381.25 698.69 390.48 703.79 399.69 706.55 409.2 706.68 419.01 704.66 428.81 700.17 438.7 693.61 448.62 685.77 458.55 676.78 468.53 667.2 478.5 657.82 488.48 648.81 498.44 640.55 508.33 633.63 518.19 627.91 527.95 623.46 537.54 620.59 547.03 618.82 556.3 617.93 565.25 618.14 574.03 618.69 582.42 619.28 590.33 620.17 597.96 620.56 605.02 620.23 611.41 618.67 620.09 609.2 632.86 601.2 636.77 594.86 638.7 587.6 639.78 579.55 640.03 571.04 640.04 561.94 639.35 552.4 638.06 542.61 636.79 532.55 635.14 522.34 633.23 512.04 631.71 501.69 630.22 491.37 628.88 481.05 628.3 470.79 628.13 460.65 628.47 450.54 629.83 440.54 631.83 430.69 634.49 420.86 638.2 411.17 642.5 401.62 647.29 392.07 652.87 382.88 658.53 374.04 664.08 365.17 669.87 356.63 675.18 348.41 679.83 340.14 684.2 332.16 687.61 324.45 689.94 316.65 691.62 309.09 692.07 301.75 691.27 294.26 689.67 286.94 686.8 279.75 682.75 272.37 677.94 265.07 672.04 257.84 665.19 250.36 657.76 242.91 649.54 235.48 640.67 227.82 631.45 220.19 621.76 212.63 611.72 204.91 601.55 197.32 591.16 189.93 580.68 182.54 570.2 175.47 559.7 168.82 549.25 162.36 538.89 156.44 528.61 151.16 518.44 146.24 508.39 142.02 498.44 138.58 488.62 135.52 478.9 133.21 469.27 131.64 459.74 130.34 450.28 129.64 440.89 129.5 431.56 129.35 422.27 129.57 413.01 130.07 403.8 130.29 394.6 130.63 385.42 131.05 376.28 131.02 367.14 131.05 358.25 131.15 349.61 130.9 340.97 130.85 332.6 131.07 324.5 131.2 316.42 131.78 308.62 132.9 301.13 134.19 293.66 136.17 286.51 138.85 279.7 141.9 272.9 145.71 266.45 150.25 260.35 155.18 254.25 160.78 248.5 166.99 243.1 173.46 237.67 180.42 232.55 187.78 227.76 195.21 222.88 202.92 218.27 210.82 213.92 218.63 209.41 226.55 205.1 234.53 200.98 242.32 196.62 250.15 192.39 258 188.28 265.63 183.86 273.31 179.52 281.05 175.24 288.59 170.63 296.23 166.08 304.01 161.59 311.64 156.8 319.45 152.11 327.46 147.55 335.37 142.78 343.54 138.22 351.97 133.94 360.34 129.58 369.02 125.62 378 122.12 386.96 118.73 396.26 115.94 405.9 113.83" stroke-dasharray="0 0" transform="rotate(23.913043478260867, 400, 400)" opacity="0.81"></path><path d="M412.52 127.87C421.79 126.07 431.15 125.04 440.55 124.79 449.96 124.91 459.42 125.82 468.88 127.5 478.33 129.56 487.74 132.37 497.06 135.88 506.31 139.71 515.4 144.17 524.23 149.22 532.88 154.49 541.18 160.26 548.99 166.46 556.5 172.78 563.41 179.45 569.6 186.41 575.36 193.39 580.31 200.6 584.38 208 587.98 215.32 590.71 222.79 592.58 230.37 594.16 237.83 595.04 245.39 595.38 253.03 595.82 260.52 596.06 268.11 596.33 275.77 597.28 283.29 598.68 290.92 600.74 298.64 604 306.25 608.21 313.99 613.44 321.87 619.96 329.66 627.4 337.61 635.58 345.74 644.51 353.8 653.62 362.07 662.5 370.54 671.03 378.98 678.52 387.65 684.51 396.54 689.05 405.42 691.46 414.54 691.54 423.9 689.71 433.27 685.67 442.65 679.75 452.03 672.65 461.42 664.41 470.79 655.52 480.11 646.67 489.42 637.97 498.65 629.78 507.77 622.63 516.84 616.43 525.74 611.28 534.43 607.51 543.01 604.74 551.31 602.83 559.27 602.01 567.05 601.67 574.4 601.56 581.26 602.01 590.89 600.87 606.59 598.34 612.43 594.24 617.01 580.55 621.94 571.18 622.4 564.22 622.34 556.61 621.71 548.47 620.6 540.05 619.6 531.23 618.3 522.13 616.83 512.89 615.77 503.47 614.76 493.97 613.92 484.41 613.79 474.83 614.02 465.28 614.7 455.73 616.28 446.23 618.41 436.82 621.09 427.42 624.68 418.11 628.76 408.91 633.25 399.71 638.44 390.82 643.66 382.24 648.77 373.64 654.13 365.32 659.06 357.27 663.4 349.17 667.55 341.3 670.86 333.66 673.23 325.92 675.08 318.37 675.85 310.97 675.51 303.44 674.49 296.02 672.33 288.7 669.09 281.2 665.18 273.75 660.26 266.35 654.43 258.75 648.05 251.18 640.88 243.66 633.06 235.97 624.86 228.35 616.15 220.84 607.04 213.26 597.74 205.87 588.16 198.74 578.4 191.69 568.59 185.01 558.69 178.78 548.76 172.8 538.86 167.39 528.98 162.61 519.17 158.2 509.43 154.48 499.77 151.5 490.2 148.87 480.72 146.95 471.32 145.71 462.02 144.69 452.78 144.22 443.62 144.25 434.55 144.25 425.52 144.57 416.55 145.13 407.66 145.4 398.79 145.77 389.98 146.2 381.25 146.18 372.51 146.2 364.06 146.27 355.88 145.98 347.71 145.86 339.81 145.97 332.21 145.95 324.61 146.34 317.3 147.2 310.31 148.2 303.31 149.82 296.62 152.08 290.26 154.67 283.89 157.98 277.84 161.99 272.12 166.37 266.37 171.42 260.93 177.09 255.81 183.05 250.61 189.54 245.7 196.46 241.06 203.53 236.31 210.93 231.79 218.58 227.49 226.23 223.01 234.04 218.7 241.97 214.55 249.78 210.16 257.65 205.87 265.57 201.68 273.33 197.21 281.13 192.8 288.98 188.46 296.66 183.82 304.41 179.24 312.25 174.73 319.96 169.97 327.8 165.31 335.79 160.8 343.68 156.12 351.77 151.65 360.06 147.46 368.3 143.22 376.79 139.36 385.52 135.96 394.24 132.67 403.23 129.95 412.51 127.87" stroke-dasharray="0 0" transform="rotate(28.695652173913043, 400, 400)" opacity="0.68"></path><path d="M417.12 141.91C425.97 140.13 434.82 139.07 443.64 138.75 452.45 138.75 461.22 139.5 469.9 140.98 478.54 142.81 487.06 145.34 495.37 148.53 503.6 152.02 511.55 156.13 519.16 160.8 526.6 165.69 533.59 171.08 540.06 176.9 546.26 182.85 551.84 189.17 556.75 195.79 561.31 202.46 565.16 209.38 568.26 216.5 571.07 223.6 573.19 230.85 574.67 238.24 576.06 245.54 577.02 252.96 577.67 260.47 578.6 267.87 579.55 275.35 580.68 282.92 582.55 290.37 584.94 297.92 587.99 305.55 592.12 313.09 597.07 320.73 602.87 328.48 609.71 336.16 617.24 343.97 625.26 351.91 633.8 359.8 642.32 367.85 650.49 376.06 658.24 384.24 664.96 392.6 670.27 401.14 674.27 409.66 676.37 418.37 676.39 427.26 674.75 436.15 671.13 445.01 665.81 453.81 659.42 462.61 651.93 471.35 643.74 479.98 635.47 488.59 627.18 497.08 619.18 505.39 611.96 513.66 605.46 521.71 599.79 529.49 595.28 537.18 591.64 544.55 588.8 551.53 586.35 561.56 584.3 578.9 583.61 586 580.29 596.35 567.44 604.5 560.05 604.8 554.5 604.77 548.3 604.28 541.51 603.42 534.45 602.71 526.93 601.8 519.03 600.77 510.96 600.15 502.61 599.6 494.07 599.22 485.45 599.49 476.7 600.07 467.88 601.04 459.04 602.81 450.16 605.02 441.3 607.69 432.43 611.16 423.58 615.03 414.77 619.22 405.97 624.01 397.4 628.82 389.08 633.51 380.73 638.44 372.61 642.98 364.69 647.02 356.73 650.93 348.94 654.11 341.32 656.47 333.62 658.43 326.04 659.43 318.58 659.46 311 658.93 303.5 657.39 296.06 654.88 288.49 651.78 280.95 647.74 273.47 642.86 265.84 637.47 258.27 631.32 250.77 624.52 243.18 617.35 235.71 609.64 228.4 601.5 221.1 593.13 214.04 584.43 207.29 575.49 200.68 566.45 194.49 557.26 188.78 547.97 183.35 538.68 178.49 529.34 174.26 520.02 170.38 510.73 167.17 501.48 164.65 492.3 162.45 483.16 160.9 474.1 159.96 465.13 159.2 456.2 158.94 447.35 159.12 438.6 159.23 429.88 159.62 421.25 160.23 412.71 160.53 404.19 160.92 395.75 161.35 387.42 161.34 379.08 161.36 371.04 161.41 363.29 161.1 355.54 160.93 348.08 160.95 340.91 160.83 333.73 161.05 326.85 161.69 320.27 162.42 313.68 163.7 307.38 165.58 301.39 167.72 295.37 170.53 289.64 174 284.21 177.81 278.73 182.27 273.52 187.34 268.59 192.72 263.57 198.64 258.8 205.03 254.26 211.62 249.58 218.58 245.11 225.84 240.81 233.18 236.34 240.73 232 248.45 227.8 256.13 223.36 263.92 219.02 271.78 214.76 279.55 210.24 287.37 205.79 295.24 201.4 302.99 196.75 310.8 192.16 318.66 187.67 326.43 182.95 334.28 178.35 342.23 173.92 350.11 169.34 358.12 164.98 366.28 160.9 374.39 156.8 382.68 153.07 391.15 149.77 399.6 146.59 408.25 143.95 417.11 141.91" stroke-dasharray="0 0" transform="rotate(33.47826086956522, 400, 400)" opacity="0.89"></path><path d="M418.98 155.95C427.34 154.2 435.62 153.12 443.78 152.72 451.93 152.63 459.95 153.23 467.78 154.5 475.57 156.1 483.14 158.35 490.44 161.22 497.63 164.38 504.5 168.13 510.96 172.4 517.26 176.91 523.1 181.89 528.42 187.29 533.52 192.85 538.04 198.77 541.97 205 545.67 211.31 548.77 217.88 551.28 224.67 553.66 231.46 555.54 238.44 556.99 245.56 558.52 252.64 559.82 259.84 561.01 267.13 562.6 274.36 564.33 281.69 566.36 289.08 569.12 296.4 572.4 303.81 576.3 311.28 581.12 318.69 586.63 326.18 592.79 333.75 599.77 341.27 607.22 348.89 614.95 356.61 622.99 364.29 630.89 372.09 638.32 380.01 645.3 387.9 651.27 395.92 655.95 404.07 659.45 412.2 661.27 420.47 661.24 428.86 659.77 437.25 656.56 445.56 651.81 453.76 646.09 461.95 639.32 470.03 631.84 477.96 624.19 485.87 616.37 493.6 608.68 501.12 601.54 508.59 594.9 515.81 588.89 522.73 583.83 529.55 579.49 536.04 575.84 542.14 572.04 550.86 567.59 565.71 566.1 571.67 562.72 580.31 552.44 587.06 546.58 587.37 539.69 587.29 522.65 585.92 512.76 585.06 505.86 584.86 498.62 584.74 491.09 584.77 483.47 585.39 475.63 586.28 467.63 587.49 459.6 589.4 451.43 591.67 443.19 594.31 434.94 597.64 426.63 601.28 418.27 605.18 409.92 609.6 401.72 614.01 393.68 618.3 385.62 622.8 377.72 626.97 369.95 630.7 362.15 634.35 354.47 637.36 346.9 639.68 339.26 641.68 331.71 642.85 324.23 643.18 316.67 643.05 309.16 642.03 301.71 640.14 294.16 637.75 286.66 634.52 279.22 630.49 271.71 626.03 264.28 620.84 256.96 615.02 249.62 608.85 242.44 602.13 235.48 594.96 228.59 587.55 221.99 579.78 215.75 571.72 209.69 563.53 204.07 555.13 198.95 546.59 194.11 538 189.84 529.32 186.18 520.6 182.85 511.89 180.15 503.16 178.07 494.47 176.28 485.8 175.06 477.18 174.41 468.62 173.88 460.1 173.78 451.64 174.08 443.28 174.28 434.93 174.72 426.68 175.35 418.52 175.68 410.38 176.07 402.33 176.5 394.4 176.51 386.46 176.52 378.82 176.56 371.47 176.25 364.11 176.05 357.04 176.02 350.25 175.81 343.45 175.91 336.94 176.36 330.71 176.86 324.46 177.84 318.48 179.35 312.78 181.08 307.04 183.41 301.56 186.34 296.35 189.58 291.08 193.44 286.04 197.88 281.24 202.63 276.35 207.91 271.66 213.68 267.16 219.68 262.54 226.08 258.07 232.83 253.76 239.71 249.28 246.85 244.9 254.2 240.64 261.58 236.17 269.12 231.78 276.77 227.47 284.38 222.92 292.08 218.44 299.83 214.03 307.52 209.4 315.27 204.84 323.06 200.39 330.78 195.74 338.57 191.23 346.42 186.89 354.22 182.44 362.1 178.22 370.06 174.27 378 170.32 386.05 166.73 394.2 163.55 402.34 160.49 410.6 157.94 418.96 155.95" stroke-dasharray="0 0" transform="rotate(38.26086956521739, 400, 400)" opacity="0.68"></path><path d="M417.8 169.98C425.62 168.27 433.28 167.19 440.75 166.73 448.2 166.54 455.44 167 462.43 168.08 469.39 169.44 476.05 171.42 482.4 173.98 488.65 176.81 494.54 180.18 500.02 184.06 505.37 188.16 510.28 192.72 514.69 197.69 518.97 202.81 522.75 208.3 526.03 214.11 529.2 220.01 531.91 226.18 534.18 232.57 536.46 239.01 538.42 245.63 540.12 252.41 542.02 259.19 543.85 266.1 545.71 273.11 548.02 280.09 550.56 287.17 553.43 294.33 556.99 301.43 561.02 308.62 565.58 315.87 570.9 323.07 576.76 330.35 583.1 337.68 590.04 344.98 597.26 352.36 604.59 359.8 612.07 367.22 619.29 374.72 625.98 382.3 632.21 389.86 637.48 397.51 641.56 405.23 644.61 412.95 646.16 420.74 646.09 428.6 644.79 436.46 641.94 444.2 637.73 451.78 632.65 459.36 626.59 466.78 619.81 474.01 612.8 481.22 605.53 488.22 598.23 494.97 591.31 501.67 584.69 508.1 578.52 514.21 573.09 520.24 568.22 525.92 563.93 531.22 558.96 538.78 552.11 551.5 549.65 556.55 540.84 566.82 525.84 570.4 519.19 570.1 511.79 569.98 494.53 570.03 484.87 570.57 478.24 571.49 471.32 572.64 464.16 574.04 456.96 576.05 449.55 578.35 441.99 580.94 434.41 584.11 426.69 587.53 418.84 591.14 411 595.2 403.23 599.22 395.53 603.12 387.84 607.22 380.21 611.02 372.66 614.43 365.1 617.81 357.59 620.64 350.15 622.87 342.67 624.86 335.24 626.14 327.86 626.69 320.44 626.87 313.05 626.28 305.72 624.91 298.35 623.14 291.04 620.61 283.81 617.36 276.58 613.73 269.45 609.43 262.47 604.52 255.54 599.3 248.82 593.54 242.34 587.33 236 580.88 229.97 574.04 224.32 566.89 218.89 559.59 213.91 552.05 209.42 544.32 205.22 536.51 201.55 528.57 198.46 520.54 195.67 512.49 193.44 504.39 191.79 496.29 190.37 488.18 189.46 480.09 189.04 472.04 188.71 464 188.75 456.01 189.13 448.09 189.4 440.19 189.87 432.36 190.5 424.63 190.84 416.91 191.23 409.27 191.65 401.74 191.67 394.21 191.69 386.96 191.74 379.98 191.44 373 191.23 366.29 191.16 359.85 190.9 353.39 190.9 347.2 191.21 341.27 191.87 332.45 195.71 315.98 199.08 308.29 201.77 303.17 205.03 298.26 208.83 293.55 212.92 288.74 217.53 284.11 222.62 279.64 227.95 275.04 233.7 270.57 239.82 266.24 246.11 261.73 252.69 257.33 259.53 253.03 266.45 248.54 273.57 244.12 280.83 239.77 288.12 235.23 295.51 230.75 302.99 226.35 310.45 221.77 317.98 217.27 325.56 212.88 333.1 208.34 340.69 203.95 348.32 199.73 355.92 195.43 363.57 191.36 371.26 187.57 378.93 183.79 386.65 180.34 394.41 177.3 402.16 174.37 409.96 171.92 417.79 169.99" stroke-dasharray="0 0" transform="rotate(43.04347826086957, 400, 400)" opacity="0.50"></path><path d="M413.77 184.02C421 182.36 428.02 181.27 434.8 180.76 441.56 180.49 448.06 180.81 454.28 181.7 460.46 182.85 466.32 184.56 471.85 186.81 477.32 189.31 482.42 192.31 487.12 195.79 491.76 199.48 495.98 203.6 499.8 208.12 503.54 212.8 506.89 217.83 509.84 223.17 512.79 228.62 515.41 234.34 517.74 240.29 520.17 246.31 522.43 252.52 524.57 258.9 526.99 265.3 529.43 271.85 531.99 278.51 535.02 285.16 538.29 291.91 541.89 298.75 546.09 305.56 550.7 312.45 555.72 319.4 561.35 326.32 567.36 333.3 573.69 340.34 580.42 347.35 587.29 354.41 594.13 361.53 600.98 368.62 607.5 375.77 613.47 382.96 618.97 390.14 623.58 397.37 627.1 404.63 629.73 411.9 631.04 419.19 630.94 426.5 629.79 433.82 627.29 440.97 623.58 447.93 619.1 454.9 613.72 461.66 607.64 468.22 601.29 474.74 594.6 481.04 587.78 487.07 581.18 493.05 574.73 498.75 568.57 504.13 562.95 509.44 557.75 514.41 552.99 519.01 547.07 525.58 538.05 536.54 534.58 540.86 524.33 549.99 510.64 553.91 505.01 554.07 498.79 554.45 484.11 555.58 475.76 556.6 470.01 557.78 463.94 559.14 457.58 560.69 451.19 562.77 444.54 565.07 437.66 567.58 430.77 570.59 423.68 573.78 416.4 577.1 409.12 580.81 401.83 584.46 394.57 587.98 387.3 591.7 380.04 595.13 372.81 598.23 365.58 601.33 358.36 603.95 351.18 606.06 343.98 608 336.81 609.33 329.68 610.03 322.54 610.45 315.44 610.19 308.41 609.27 301.38 608.01 294.43 606.08 287.59 603.51 280.79 600.62 274.13 597.11 267.66 593.05 261.28 588.7 255.13 583.85 249.27 578.54 243.57 573.02 238.2 567.11 233.23 560.86 228.48 554.47 224.16 547.8 220.33 540.91 216.76 533.93 213.69 526.79 211.15 519.52 208.86 512.2 207.08 504.8 205.81 497.35 204.72 489.89 204.08 482.4 203.86 474.92 203.69 467.45 203.84 459.99 204.27 452.58 204.58 445.18 205.06 437.83 205.67 430.55 206.01 423.28 206.39 416.08 206.79 408.97 206.83 401.86 206.87 395 206.92 388.39 206.65 381.78 206.45 375.41 206.37 369.29 206.06 360.2 206.63 343.12 207.79 335.11 209.55 327.24 215.77 312.37 220.3 305.32 223.73 300.57 227.66 295.98 232.04 291.52 236.66 286.95 241.7 282.48 247.11 278.13 252.7 273.63 258.62 269.22 264.81 264.89 271.13 260.4 277.67 255.98 284.39 251.64 291.17 247.13 298.1 242.69 305.13 238.34 312.19 233.84 319.33 229.44 326.53 225.15 333.73 220.75 340.97 216.5 348.24 212.44 355.5 208.31 362.79 204.42 370.08 200.8 377.37 197.19 384.67 193.92 391.96 191.02 399.25 188.24 406.52 185.89 413.76 184.03" stroke-dasharray="0 0" transform="rotate(47.826086956521735, 400, 400)" opacity="0.69"></path><path d="M407.54 198.06C414.16 196.45 420.54 195.37 426.66 194.82 435.68 194.57 452.26 197.06 459.75 199.74 466.86 203.23 479.35 212.74 484.73 218.64 489.8 225.12 498.64 239.84 502.61 247.93 505.37 253.47 508.05 259.22 510.72 265.14 513.69 271.1 516.76 277.21 519.97 283.44 523.61 289.69 527.5 296.04 531.67 302.48 536.33 308.92 541.3 315.44 546.58 322.01 552.31 328.57 558.29 335.19 564.44 341.85 570.84 348.5 577.24 355.19 583.51 361.91 589.71 368.62 595.52 375.36 600.77 382.11 605.58 388.87 609.56 395.64 612.57 402.41 614.82 409.18 615.92 415.95 615.8 422.7 614.78 429.45 612.6 436.01 609.35 442.37 605.44 448.72 600.7 454.86 595.31 460.76 589.62 466.65 583.55 472.28 577.27 477.65 571.09 482.98 564.94 488.02 558.92 492.76 553.3 497.44 547.95 501.8 542.92 505.81 536.33 511.55 525.51 521.1 521.08 524.89 508.71 533.38 495.04 537.9 490.01 538.51 484.57 539.36 471.8 541.44 464.5 542.87 459.48 544.25 454.14 545.77 448.5 547.44 442.84 549.54 436.89 551.8 430.68 554.22 424.47 557.06 418.01 560.02 411.33 563.06 404.65 566.44 397.91 569.73 391.14 572.89 384.38 576.23 377.59 579.32 370.79 582.1 364 584.91 357.2 587.31 350.41 589.28 343.64 591.12 336.88 592.45 330.17 593.24 323.47 593.82 316.82 593.83 310.25 593.25 303.72 592.41 297.29 590.99 291 589 284.79 586.75 278.74 583.94 272.9 580.63 267.19 577.08 261.73 573.05 256.56 568.59 251.57 563.94 246.92 558.91 242.66 553.54 238.6 548.03 234.97 542.23 231.78 536.19 228.82 530.06 226.32 523.73 224.29 517.25 222.46 510.71 221.08 504.05 220.15 497.31 219.34 490.54 218.92 483.72 218.86 476.87 218.81 470.01 219.03 463.14 219.49 456.28 219.81 449.43 220.28 442.6 220.87 435.81 221.19 429.03 221.55 422.29 221.94 415.62 221.99 408.94 222.05 402.49 222.11 396.25 221.88 390.01 221.71 383.98 221.63 378.16 221.31 369.51 221.6 353.16 222.45 345.43 223.77 337.8 228.68 323.28 232.36 316.34 235.17 311.67 238.43 307.12 242.12 302.69 246.01 298.15 250.31 293.71 254.97 289.36 259.81 284.89 264.99 280.49 270.45 276.18 276.05 271.73 281.89 267.35 287.94 263.06 294.08 258.62 300.39 254.27 306.82 250.01 313.31 245.62 319.91 241.35 326.56 237.21 333.26 232.98 340 228.9 346.77 225.01 353.55 221.09 360.35 217.39 367.14 213.96 373.94 210.55 380.72 207.46 387.46 204.72 394.21 202.08 400.9 199.85 407.53 198.06" stroke-dasharray="0 0" transform="rotate(52.608695652173914, 400, 400)" opacity="0.77"></path><path d="M400.1 212.1C408.99 210.03 425.54 208.54 433.15 209.13 443.09 210.84 451.93 214.39 459.66 219.59 467.4 225.48 474.19 232.85 480.19 241.43 486.59 250.46 492.69 260.49 498.81 271.25 506.05 282.23 513.92 293.79 522.6 305.72 532.79 317.71 543.8 330 555.24 342.43 567.2 354.87 578.42 367.43 587.89 379.98 592.03 386.25 595.44 392.53 597.99 398.77 599.88 405.03 600.79 411.25 600.65 417.43 599.76 423.61 597.87 429.58 595.06 435.35 591.68 441.11 587.55 446.65 582.81 451.94 572.55 462.5 561.12 472.03 549.49 480.42 538.86 488.67 528.99 495.7 520.11 501.43 512.87 507.02 506.38 511.35 500.35 514.45 495.34 517.61 490.09 519.8 484.29 521.16 478.76 523.06 472.22 524.59 464.57 525.95 456.86 528.42 447.94 531.16 437.9 534.27 432.84 536.36 427.52 538.57 421.94 540.88 416.35 543.52 410.52 546.25 404.45 549.02 398.38 552.07 392.23 555.02 386.03 557.84 379.83 560.82 373.59 563.57 367.33 566.05 354.85 571.08 342.33 574.59 329.99 576.37 317.79 577.56 305.9 576.71 294.59 573.9 283.64 570.25 273.51 564.7 264.51 557.5 256.17 549.63 249.2 540.36 243.85 530.04 239.24 519.35 236.21 507.86 234.8 495.88 233.68 483.76 233.74 471.32 234.77 458.8 235.09 452.53 235.54 446.25 236.08 439.99 236.38 433.73 236.72 427.48 237.09 421.26 237.15 415.05 237.22 409.01 237.31 403.15 237.12 397.29 236.99 391.6 236.93 386.09 236.27 375.02 236.35 364.58 237.38 354.8 238.49 344.84 241.04 335.4 245.08 326.47 249.74 317.23 256 308.36 263.67 299.86 271.99 290.95 281.54 282.31 292.02 274.01 302.91 265.28 314.47 256.91 326.43 249.05 338.57 240.94 350.95 233.52 363.31 227.05 369.51 223.85 375.7 220.95 381.84 218.38 387.99 215.9 394.08 213.8 400.09 212.1" stroke-dasharray="0 0" transform="rotate(57.391304347826086, 400, 400)" opacity="0.58"></path><path d="M392.64 226.14C403.46 223.35 413.46 222.31 422.56 222.95 431.65 224.27 439.89 227.24 447.29 231.71 454.81 236.78 461.71 243.21 468.13 250.77 475.03 258.76 481.88 267.71 488.89 277.38 496.87 287.29 505.39 297.79 514.51 308.66 524.7 319.64 535.32 330.93 545.98 342.34 556.79 353.79 566.67 365.35 574.8 376.85 581.44 388.38 585.2 399.83 585.5 411.04 583.39 422.25 578.03 432.65 570.14 442.14 561.15 451.59 550.89 460.07 540.15 467.51 529.98 474.86 520.15 481.13 510.97 486.28 503.03 491.38 495.7 495.44 488.84 498.49 482.92 501.7 477 504.13 470.82 505.91 465.03 508.23 458.58 510.25 451.35 512.12 444.17 514.95 436.03 517.96 426.95 521.18 417.84 525.57 407.78 530.23 396.85 534.98 385.92 540.65 374.7 545.77 363.4 550.08 352.17 554.56 340.94 557.74 329.93 559.46 319.12 560.78 308.67 560.38 298.87 558.29 289.43 555.58 280.84 551.19 273.37 545.32 266.45 538.9 260.81 531.17 256.6 522.4 252.95 513.3 250.67 503.36 249.73 492.84 248.94 482.19 249.12 471.1 250.12 459.8 250.54 448.48 251.28 437.01 252.24 425.54 252.1 414.07 252.09 403.12 252.27 392.75 251.7 382.33 251.74 372.4 252.56 362.99 253.31 353.44 255.26 344.3 258.46 335.58 262.08 326.6 267.11 317.94 273.39 309.61 280.22 300.94 288.21 292.55 297.11 284.5 306.41 276.14 316.43 268.15 326.91 260.68 337.6 253.06 348.58 246.12 359.62 240.08 370.74 234.2 381.81 229.46 392.63 226.14" stroke-dasharray="0 0" transform="rotate(62.17391304347826, 400, 400)" opacity="0.17"></path><path d="M386.36 240.18C396.05 237.54 405.12 236.45 413.54 236.84 421.96 237.8 429.8 240.24 437.08 244 444.53 248.28 451.63 253.8 458.5 260.35 465.83 267.29 473.24 275.13 480.86 283.66 489.23 292.44 498.01 301.8 507.14 311.54 516.95 321.4 526.89 331.57 536.55 341.88 546.12 352.25 554.66 362.71 561.53 373.11 567.09 383.53 570.18 393.86 570.35 403.93 568.57 414.01 564.03 423.32 557.29 431.79 549.54 440.22 540.5 447.79 530.79 454.43 521.33 461.02 511.89 466.69 502.78 471.42 494.53 476.17 486.71 480.07 479.28 483.16 472.65 486.45 466.11 489.14 459.52 491.31 453.35 493.97 446.8 496.39 439.76 498.67 432.83 501.75 425.22 504.91 416.91 508.16 408.59 512.35 399.52 516.66 389.76 520.95 379.99 525.97 370.03 530.45 360.05 534.19 350.15 538.12 340.33 540.95 330.81 542.55 321.46 543.89 312.56 543.79 304.32 542.27 296.42 540.3 289.34 536.88 283.3 532.15 277.72 526.99 273.25 520.64 270.04 513.29 267.2 505.66 265.5 497.19 264.93 488.09 264.36 478.86 264.6 469.13 265.51 459.08 265.86 448.99 266.52 438.64 267.39 428.17 267.31 417.7 267.37 407.59 267.61 397.9 267.17 388.18 267.23 378.81 267.92 369.85 268.45 360.78 269.95 352.01 272.47 343.59 275.25 334.97 279.2 326.62 284.26 318.56 289.72 310.27 296.23 302.23 303.62 294.54 311.34 286.64 319.79 279.12 328.76 272.12 337.91 265.05 347.44 258.62 357.12 253.05 366.87 247.64 376.68 243.27 386.36 240.18" stroke-dasharray="0 0" transform="rotate(66.95652173913044, 400, 400)" opacity="0.79"></path><path d="M382.27 254.22C390.9 251.74 399.15 250.63 406.98 250.81 414.84 251.46 422.37 253.39 429.58 256.5 436.96 260.03 444.2 264.67 451.37 270.23 458.93 276.14 466.62 282.87 474.47 290.26 482.86 297.87 491.49 306.04 500.23 314.59 509.35 323.27 518.35 332.26 526.87 341.39 535.14 350.6 542.37 359.9 548.06 369.15 552.65 378.43 555.14 387.62 555.2 396.58 553.72 405.54 549.94 413.81 544.26 421.34 537.69 428.85 529.88 435.61 521.32 441.57 512.77 447.53 504 452.72 495.3 457.14 487.14 461.62 479.21 465.43 471.55 468.59 464.49 471.97 457.56 474.88 450.68 477.37 444.18 480.3 437.49 483.01 430.55 485.58 423.75 488.79 416.52 492 408.83 495.21 401.17 499.15 392.98 503.09 384.3 506.91 375.63 511.31 366.9 515.18 358.28 518.39 349.71 521.78 341.32 524.24 333.3 525.66 325.43 526.94 318.04 527.03 311.31 525.93 304.86 524.51 299.18 521.87 294.43 518.1 290 514.01 286.55 508.85 284.14 502.78 281.95 496.47 280.69 489.36 280.35 481.6 279.92 473.73 280.14 465.31 280.93 456.49 281.2 447.63 281.75 438.43 282.53 428.99 282.5 419.55 282.64 410.33 282.97 401.39 282.67 392.43 282.8 383.71 283.44 375.28 283.85 366.77 285.04 358.49 287.06 350.48 289.18 342.34 292.27 334.41 296.3 326.76 300.58 318.94 305.79 311.38 311.8 304.17 318.06 296.81 325.03 289.84 332.54 283.39 340.2 276.91 348.29 271.04 356.64 265.97 365.05 261.05 373.63 257.07 382.27 254.22" stroke-dasharray="0 0" transform="rotate(71.73913043478261, 400, 400)" opacity="0.15"></path><path d="M381.01 268.25C388.65 265.97 396.14 264.86 403.42 264.86 410.74 265.24 417.93 266.72 424.98 269.21 432.18 272.05 439.38 275.85 446.58 280.47 454.06 285.38 461.66 291.04 469.35 297.29 477.37 303.74 485.47 310.71 493.5 318.05 501.67 325.52 509.56 333.29 516.85 341.22 523.82 349.21 529.79 357.32 534.4 365.41 538.11 373.52 540.08 381.58 540.05 389.45 538.84 397.32 535.74 404.61 531.04 411.27 525.59 417.93 519 423.96 511.63 429.34 504.14 434.74 496.26 439.53 488.27 443.7 480.56 447.96 472.9 451.69 465.38 454.91 458.26 458.35 451.23 461.4 444.29 464.13 437.65 467.21 430.94 470.11 424.15 472.83 417.49 476.07 410.61 479.24 403.49 482.32 396.4 485.96 389.01 489.51 381.36 492.87 373.7 496.68 366.15 499.98 358.82 502.68 351.52 505.55 344.5 507.63 337.9 508.85 328.41 510.09 312.64 507.34 306.74 503.33 301.95 498.04 296.64 482.92 295.94 473.45 295.57 466.84 295.73 459.66 296.37 452.03 296.55 444.38 297 436.32 297.68 427.94 297.7 419.57 297.9 411.28 298.31 403.16 298.17 395.03 298.4 387.04 299.05 379.25 299.44 371.41 300.45 363.73 302.12 356.27 303.77 348.72 306.21 341.35 309.42 334.23 312.76 327.01 316.89 320.04 321.73 313.4 326.72 306.69 332.37 300.34 338.57 294.49 344.87 288.66 351.64 283.39 358.76 278.83 365.91 274.43 373.36 270.85 381.01 268.25" stroke-dasharray="0 0" transform="rotate(76.52173913043478, 400, 400)" opacity="0.15"></path><path d="M382.79 282.29C389.51 280.21 396.24 279.13 402.92 279 409.64 279.14 416.37 280.23 423.08 282.17 429.89 284.38 436.77 287.4 443.67 291.14 450.74 295.11 457.89 299.73 465.04 304.88 472.34 310.2 479.6 316 486.66 322.15 493.71 328.4 500.37 334.95 506.41 341.67 512.11 348.45 516.91 355.37 520.54 362.29 523.47 369.24 524.99 376.18 524.91 382.99 523.94 389.8 521.44 396.15 517.63 402.01 513.23 407.86 507.81 413.23 501.65 418.08 495.29 422.97 488.47 427.38 481.41 431.32 474.45 435.35 467.4 438.97 460.37 442.21 453.57 445.62 446.79 448.74 440.09 451.58 433.6 454.7 427.09 457.65 420.6 460.42 414.22 463.56 407.75 466.6 401.22 469.48 394.72 472.78 388.1 475.92 381.4 478.83 374.7 482.08 368.24 484.84 362.08 487.07 353.06 490.29 337.14 493.21 330.54 492.68 320.54 487.5 312.23 471.62 311.65 463.81 311.28 458.34 311.35 452.32 311.82 445.83 311.9 439.33 312.24 432.39 312.83 425.1 312.88 417.8 313.15 410.5 313.62 403.28 313.64 396.05 313.99 388.88 314.69 381.84 315.12 374.77 316.05 367.81 317.5 361.02 318.86 354.19 320.85 347.5 323.45 341.04 326.08 334.54 329.37 328.25 333.27 322.29 337.23 316.3 341.79 310.65 346.87 305.46 352 300.31 357.61 295.66 363.63 291.65 369.66 287.78 376.06 284.62 382.79 282.29" stroke-dasharray="0 0" transform="rotate(81.30434782608695, 400, 400)" opacity="0.25"></path><path d="M387.32 296.33C398.97 292.84 411.11 292.67 423.3 295.38 435.74 298.88 448.52 305.04 461.02 313.16 473.69 321.79 485.63 332.02 495.49 343.07 504.17 354.29 509.37 366.05 509.76 377.63 507.64 389.2 500.98 399.42 491.29 408.08 480.77 416.86 468.61 424.35 456.05 430.52 443.9 437.26 431.57 443.21 419.55 448.31 407.82 454.48 395.98 460.14 384.42 464.79 372.85 470.43 362.55 474.08 353.95 475.57 342.12 476.57 328.89 464.99 327.41 452.91 326.37 443.96 326.58 433.05 327.98 420.64 327.72 408.22 328.49 395.53 330.27 383.18 331.11 370.79 333.7 358.63 338.11 347.29 342.39 335.88 348.82 325.31 357.14 316.31 365.5 307.5 375.67 300.56 387.32 296.33" stroke-dasharray="0 0" transform="rotate(86.08695652173914, 400, 400)" opacity="0.41"></path><path d="M393.88 310.37C403.75 307.32 414.22 306.93 424.8 308.85 435.5 311.32 446.38 315.95 456.78 322.21 467.11 328.83 476.54 336.84 484.07 345.65 490.64 354.59 494.46 364.12 494.61 373.7 493.06 383.28 488 391.97 480.49 399.57 472.24 407.26 462.4 414.07 451.93 419.89 441.54 426.12 430.81 431.7 420.31 436.48 409.97 441.98 399.7 446.88 389.92 450.75 380.15 455.3 371.72 458.13 364.86 459.17 355.36 459.88 344.62 450.7 343.14 441.07 342.04 433.94 342.03 425.1 343.13 414.84 343.02 404.59 343.93 393.95 345.74 383.49 346.78 373.03 349.22 362.72 353.05 353.09 356.64 343.48 361.93 334.6 368.78 327.07 375.59 319.74 384.01 313.95 393.88 310.37" stroke-dasharray="0 0" transform="rotate(90.86956521739131, 400, 400)" opacity="0.97"></path><path d="M401.42 324.41C409.46 321.85 418 321.35 426.58 322.62 435.19 324.22 443.81 327.51 451.85 332.11 459.72 336.93 466.71 342.91 472.1 349.63 476.82 356.43 479.48 363.83 479.46 371.47 478.38 379.1 474.73 386.23 469.21 392.65 463.13 399.14 455.65 405.07 447.49 410.27 439.25 415.74 430.57 420.68 421.99 424.91 413.45 429.57 405 433.62 397.05 436.72 385.71 441.27 369.29 443.34 364.31 440.55 360.34 436.12 357.56 419.67 358.28 408.1 358.29 399.98 359.25 391.48 361.02 383.05 362.23 374.65 364.54 366.33 367.9 358.58 371.02 350.87 375.42 343.77 381.02 337.77 386.55 331.93 393.39 327.31 401.42 324.41" stroke-dasharray="0 0" transform="rotate(95.65217391304347, 400, 400)" opacity="0.33"></path><path d="M408.74 338.45C420.99 334.66 434.41 336.73 445.82 342.9 456.62 349.54 463.96 359.63 464.31 371.07 462.37 382.51 453.78 393.17 442.28 401.62 430.35 410.66 416.78 418.31 404.64 422.68 392.49 427.96 383.81 428.55 379.19 424.86 373.98 421.18 371.85 412.86 373.42 400.83 373.13 388.8 376.34 375.53 382.25 363.91 387.45 352.49 396.47 343.03 408.74 338.45" stroke-dasharray="0 0" transform="rotate(100.43478260869564, 400, 400)" opacity="0.27"></path><path d="M414.65 352.48C422.93 349.8 431.5 350.84 438.4 354.59 444.96 358.53 449.18 364.89 449.16 372.54 448.15 380.18 443.05 387.7 435.93 393.87 428.52 400.28 419.71 405.68 411.49 408.64 400.17 412.07 388.62 404.2 388.57 393.51 388.59 385.58 391.24 376.85 395.73 369.23 399.85 361.74 406.36 355.54 414.65 352.48" stroke-dasharray="0 0" transform="rotate(105.21739130434783, 400, 400)" opacity="0.16"></path></g></svg>